<svg width="49" height="48" viewBox="0 0 49 48" fill="none" xmlns="http://www.w3.org/2000/svg">
<path d="M46.1645 0H2.83549C1.54563 0 0.5 1.04563 0.5 2.33549V45.6645C0.5 46.9544 1.54563 48 2.83549 48H46.1645C47.4544 48 48.5 46.9544 48.5 45.6645V2.33549C48.5 1.04563 47.4544 0 46.1645 0Z" fill="url(#paint0_linear_1_477)"/>
<path d="M40.2417 36.5023L39.0319 35.2925L25.9967 22.2573L29.8636 18.3904L30.7901 17.462C30.8785 17.3724 30.9284 17.2517 30.929 17.1258C30.9287 17.0635 30.9161 17.0019 30.892 16.9445C30.8678 16.8872 30.8326 16.8351 30.7883 16.7914L29.8599 15.863L25.7591 11.7549L24.8308 10.8265C24.7869 10.7819 24.7346 10.7464 24.6768 10.7222C24.6191 10.698 24.5571 10.6855 24.4945 10.6855C24.4319 10.6855 24.3699 10.698 24.3122 10.7222C24.2545 10.7464 24.2021 10.7819 24.1583 10.8265L23.2299 11.7567L18.2044 16.7822C18.1598 16.8259 18.1244 16.8781 18.1002 16.9357C18.076 16.9933 18.0636 17.0551 18.0636 17.1176C18.0636 17.18 18.076 17.2418 18.1002 17.2994C18.1244 17.357 18.1598 17.4092 18.2044 17.4529L23.0051 22.2554L9.96806 35.2925L8.76376 36.5023C8.67447 36.5908 8.62387 36.711 8.62305 36.8367C8.62357 36.9582 8.6699 37.075 8.7528 37.1638C8.79705 37.2111 8.85054 37.2488 8.90995 37.2746C8.96936 37.3004 9.03343 37.3137 9.09819 37.3137H20.825C20.9508 37.3132 21.0714 37.263 21.1604 37.174C21.2494 37.085 21.2996 36.9644 21.3001 36.8386V35.6726C21.3001 35.5465 21.2501 35.4254 21.1611 35.336C21.072 35.2466 20.9512 35.1962 20.825 35.1957H13.0583L24.5 23.754L35.9417 35.1957H28.1074C27.9812 35.1962 27.8604 35.2466 27.7713 35.336C27.6823 35.4254 27.6323 35.5465 27.6323 35.6726V36.8386C27.632 36.9012 27.6444 36.9632 27.6685 37.021C27.6927 37.0787 27.7282 37.131 27.773 37.1748C27.8617 37.2634 27.982 37.3134 28.1074 37.3137H39.9055C39.9705 37.3139 40.0349 37.3007 40.0947 37.275C40.1544 37.2492 40.2082 37.2113 40.2527 37.1638C40.3381 37.0742 40.3848 36.9546 40.3827 36.8308C40.3807 36.7071 40.33 36.5891 40.2417 36.5023ZM24.4927 13.4855L28.1348 17.1276L24.5018 20.7606L20.8597 17.1185L24.4927 13.4855Z" fill="white"/>
<defs>
<linearGradient id="paint0_linear_1_477" x1="10.5419" y1="5.6176" x2="43.3594" y2="48.8406" gradientUnits="userSpaceOnUse">
<stop stop-color="#794FD9"/>
<stop offset="1" stop-color="#33B1F7"/>
</linearGradient>
</defs>
</svg>
