<svg width="272" height="228" viewBox="0 0 272 228" fill="none" xmlns="http://www.w3.org/2000/svg">
<path d="M270.73 221.053L260.372 210.694L148.759 99.0814L181.869 65.9716L189.802 58.0227C190.559 57.255 190.986 56.2217 190.991 55.1436C190.989 54.6105 190.881 54.0832 190.674 53.5918C190.468 53.1005 190.166 52.6547 189.787 52.2801L181.838 44.3313L146.725 9.15599L138.776 1.20715C138.401 0.824876 137.952 0.521248 137.458 0.313993C136.964 0.106738 136.433 0 135.897 0C135.361 0 134.831 0.106738 134.336 0.313993C133.842 0.521248 133.394 0.824876 133.018 1.20715L125.069 9.17165L82.039 52.2019C81.6572 52.5763 81.3539 53.023 81.1468 53.5161C80.9398 54.0091 80.8331 54.5384 80.8331 55.0732C80.8331 55.6079 80.9398 56.1373 81.1468 56.6303C81.3539 57.1233 81.6572 57.5701 82.039 57.9445L123.145 99.0657L11.5164 210.694L1.20485 221.053C0.440265 221.81 0.00702549 222.84 0 223.916C0.00446469 224.956 0.401201 225.956 1.11096 226.717C1.4899 227.122 1.94788 227.444 2.45657 227.665C2.96525 227.886 3.51382 228 4.06831 228H104.477C105.555 227.996 106.587 227.566 107.349 226.804C108.112 226.042 108.541 225.009 108.546 223.932V213.949C108.546 212.868 108.117 211.832 107.355 211.066C106.592 210.301 105.558 209.869 104.477 209.865H37.9761L135.944 111.897L233.912 209.865H166.832C165.752 209.869 164.717 210.301 163.954 211.066C163.192 211.832 162.764 212.868 162.764 213.949V223.932C162.762 224.468 162.867 224.999 163.074 225.493C163.281 225.988 163.585 226.436 163.968 226.811C164.729 227.57 165.758 227.997 166.832 228H267.851C268.408 228.002 268.96 227.889 269.471 227.668C269.983 227.447 270.443 227.124 270.824 226.717C271.555 225.949 271.955 224.925 271.938 223.865C271.92 222.806 271.486 221.795 270.73 221.053ZM135.882 23.974L167.067 55.1592L135.96 86.2662L104.775 55.081L135.882 23.974Z" fill="white"/>
</svg>
