<svg width="14" height="16" viewBox="0 0 14 16" fill="none" xmlns="http://www.w3.org/2000/svg">
<path opacity="0.3" d="M11.1255 15.1462C9.88591 15.1462 8.93799 14.1982 8.93799 12.9587V1.21908C8.93799 1.00033 8.64632 0.854463 8.42757 1.0003L7.47965 2.02115L6.53174 1.07324C6.24007 0.781576 5.80257 0.781576 5.51091 1.07324L4.56299 2.02115L3.61508 1.07324C3.32341 0.781576 2.8859 0.781576 2.59423 1.07324L1.64632 2.02115L0.698412 1.07324C0.552579 0.927409 0.187988 1.00033 0.187988 1.94825V12.9587C0.187988 14.1982 1.1359 15.1462 2.37549 15.1462H11.1255Z" fill="#009BF3"/>
<path d="M6.75236 8.58107H6.02319C5.58569 8.58107 5.29403 8.2894 5.29403 7.8519C5.29403 7.4144 5.58569 7.12274 6.02319 7.12274H6.75236C7.18986 7.12274 7.48153 7.4144 7.48153 7.8519C7.48153 8.2894 7.18986 8.58107 6.75236 8.58107ZM4.56486 7.8519C4.56486 7.4144 4.27319 7.12274 3.83569 7.12274H2.37736C1.93986 7.12274 1.64819 7.4144 1.64819 7.8519C1.64819 8.2894 1.93986 8.58107 2.37736 8.58107H3.83569C4.27319 8.58107 4.56486 8.2894 4.56486 7.8519ZM4.56486 4.93522C4.56486 4.49772 4.27319 4.20605 3.83569 4.20605H2.37736C1.93986 4.20605 1.64819 4.49772 1.64819 4.93522C1.64819 5.37272 1.93986 5.66439 2.37736 5.66439H3.83569C4.27319 5.66439 4.56486 5.37272 4.56486 4.93522ZM7.48153 4.93522C7.48153 4.49772 7.18986 4.20605 6.75236 4.20605H6.02319C5.58569 4.20605 5.29403 4.49772 5.29403 4.93522C5.29403 5.37272 5.58569 5.66439 6.02319 5.66439H6.75236C7.18986 5.66439 7.48153 5.37272 7.48153 4.93522ZM7.48153 10.7686C7.48153 10.3311 7.18986 10.0394 6.75236 10.0394H5.29403C4.85653 10.0394 4.56486 10.3311 4.56486 10.7686C4.56486 11.2061 4.85653 11.4977 5.29403 11.4977H6.75236C7.18986 11.4977 7.48153 11.2061 7.48153 10.7686Z" fill="#009BF3"/>
<path d="M8.93701 12.9561C8.93701 14.1956 9.88493 15.1436 11.1245 15.1436C12.3641 15.1436 13.312 14.1956 13.312 12.9561V8.50814C13.312 8.28939 13.0203 8.14355 12.8016 8.28939L11.8537 9.31022L10.9058 8.3623C10.6141 8.07064 10.1766 8.07064 9.88493 8.3623L8.93701 9.31022V12.9561Z" fill="#009BF3"/>
</svg>
