<svg width="14" height="10" viewBox="0 0 14 10" fill="none" xmlns="http://www.w3.org/2000/svg">
<path opacity="0.3" d="M12.5811 9.37402H0.914469C0.476969 9.37402 0.185303 9.08236 0.185303 8.64486V1.35319C0.185303 0.91569 0.476969 0.624023 0.914469 0.624023H12.5811C13.0186 0.624023 13.3103 0.91569 13.3103 1.35319V8.64486C13.3103 9.08236 13.0186 9.37402 12.5811 9.37402ZM6.7478 2.08236C5.50822 2.08236 4.5603 3.39486 4.5603 4.99902C4.5603 6.60319 5.50822 7.91569 6.7478 7.91569C7.98739 7.91569 8.9353 6.60319 8.9353 4.99902C8.9353 3.39486 7.98739 2.08236 6.7478 2.08236Z" fill="#009BF3"/>
<path d="M11.1228 0.624023H12.5811C13.0186 0.624023 13.3103 0.91569 13.3103 1.35319V2.81152C12.0707 2.81152 11.1228 1.86361 11.1228 0.624023ZM2.3728 0.624023H0.914469C0.476969 0.624023 0.185303 0.91569 0.185303 1.35319V2.81152C1.42489 2.81152 2.3728 1.86361 2.3728 0.624023ZM13.3103 8.64486V7.18652C12.0707 7.18652 11.1228 8.13444 11.1228 9.37402H12.5811C13.0186 9.37402 13.3103 9.08236 13.3103 8.64486ZM0.185303 7.18652V8.64486C0.185303 9.08236 0.476969 9.37402 0.914469 9.37402H2.3728C2.3728 8.13444 1.42489 7.18652 0.185303 7.18652Z" fill="#009BF3"/>
</svg>
