<svg width="14" height="12" viewBox="0 0 14 12" fill="none" xmlns="http://www.w3.org/2000/svg">
<path d="M8.33073 0.166992C9.0975 0.166992 9.83008 0.324048 10.4989 0.608858C11.1927 0.904217 11.8171 1.33788 12.34 1.87585C12.8618 2.41266 13.2834 3.05494 13.5705 3.77107C13.8473 4.45907 14 5.2127 14 6.00033C14 6.78912 13.8473 7.54275 13.5705 8.23075C13.2834 8.94454 12.8618 9.58682 12.3389 10.1248C11.8171 10.6616 11.1927 11.0953 10.4966 11.3906C9.8278 11.6754 9.09522 11.8325 8.3296 11.8325C7.56283 11.8325 6.83025 11.6754 6.16146 11.3906C5.46762 11.0953 4.84327 10.6616 4.32146 10.1248L4.32032 10.1236C3.79737 9.58565 3.37696 8.94336 3.08985 8.23075C3.00098 8.00923 2.92465 7.78185 2.86198 7.54861C2.98047 7.56034 3.10124 7.5662 3.22315 7.5662C3.45443 7.5662 3.68002 7.5451 3.89991 7.50408C3.93637 7.61659 3.97624 7.72794 4.01954 7.83694C4.25538 8.42297 4.60173 8.9504 5.03239 9.39343C5.46306 9.83647 5.97689 10.1928 6.54542 10.4354C7.09343 10.6686 7.69613 10.7987 8.3296 10.7987C8.96306 10.7987 9.56462 10.6698 10.1138 10.4354C10.6834 10.1928 11.1961 9.83647 11.6268 9.39343C12.0575 8.9504 12.4038 8.4218 12.6397 7.83694C12.8664 7.27318 12.9928 6.65316 12.9928 6.0015C12.9928 5.34983 12.8675 4.73099 12.6397 4.16605C12.4038 3.58003 12.0575 3.0526 11.6268 2.60956C11.1961 2.16652 10.6823 1.81022 10.1138 1.5676C9.56576 1.33436 8.96306 1.20426 8.3296 1.20426C7.69613 1.20426 7.09457 1.33319 6.54542 1.5676C6.49642 1.5887 6.44743 1.61097 6.39958 1.63324C6.21273 1.33085 5.98715 1.05658 5.72852 0.818657C5.8698 0.743645 6.01449 0.674493 6.16146 0.611202C6.83253 0.324048 7.56397 0.166992 8.33073 0.166992ZM7.68018 3.22724C7.68018 3.08425 7.73715 2.95532 7.82715 2.86155C7.9183 2.76779 8.04363 2.71036 8.18262 2.71036C8.32162 2.71036 8.44695 2.76779 8.53809 2.86155C8.62924 2.95532 8.68506 3.08425 8.68506 3.22724V5.94876L10.6618 7.1548C10.7803 7.22747 10.86 7.3435 10.8919 7.47126C10.9238 7.59901 10.909 7.73966 10.8384 7.86155V7.86273C10.7677 7.98462 10.655 8.06666 10.5308 8.09948C10.4066 8.1323 10.2699 8.11706 10.1514 8.0444H10.1502L7.93881 6.69536C7.86247 6.65199 7.79981 6.5887 7.75424 6.51369C7.70752 6.43516 7.68018 6.34257 7.68018 6.24411V3.22724Z" fill="#33B5FF"/>
<path fill-rule="evenodd" clip-rule="evenodd" d="M3.07389 0.476562C4.77148 0.476562 6.14779 1.89241 6.14779 3.63878C6.14779 5.38514 4.77148 6.80099 3.07389 6.80099C1.3763 6.80099 0 5.38514 0 3.63878C0 1.89241 1.3763 0.476562 3.07389 0.476562ZM3.07389 5.45195L4.72363 3.35397H3.69938V2.23817H2.4484V3.35397H1.42415L3.07389 5.45195Z" fill="#F04438"/>
</svg>
