<svg width="10" height="12" viewBox="0 0 10 12" fill="none" xmlns="http://www.w3.org/2000/svg">
<path d="M3.34721 0.674949C3.34721 0.528834 3.40526 0.388704 3.50858 0.285386C3.61189 0.182067 3.75202 0.124023 3.89814 0.124023L6.10184 0.124023C6.24796 0.124023 6.38809 0.182067 6.49141 0.285386C6.59472 0.388704 6.65277 0.528834 6.65277 0.674949C6.65277 0.821064 6.59472 0.961194 6.49141 1.06451C6.38809 1.16783 6.24796 1.22587 6.10184 1.22587H5.55092V1.96044L5.55018 1.99056C6.4814 2.0926 7.36415 2.45829 8.09472 3.04466L8.09987 3.04026L8.65079 2.48933C8.71813 2.41681 8.80378 2.3638 8.89873 2.33587C8.99367 2.30795 9.09438 2.30615 9.19026 2.33066C9.28614 2.35518 9.37363 2.4051 9.44352 2.47517C9.51341 2.54524 9.5631 2.63286 9.58737 2.7288C9.61183 2.82457 9.61008 2.92517 9.58229 3.02003C9.55451 3.11489 9.50171 3.20054 9.42943 3.26797L8.87851 3.8189L8.8741 3.82404C9.45682 4.55355 9.82172 5.43276 9.92681 6.3605C10.0319 7.28823 9.87292 8.22679 9.46815 9.06816C9.06338 9.90953 8.42928 10.6195 7.63882 11.1164C6.84836 11.6133 5.93366 11.8769 4.99999 11.8769C4.06632 11.8769 3.15162 11.6133 2.36116 11.1164C1.5707 10.6195 0.936598 9.90953 0.53183 9.06816C0.127062 8.22679 -0.0319239 7.28823 0.0731696 6.3605C0.178263 5.43276 0.543165 4.55355 1.12588 3.82404L1.12147 3.8189L0.570548 3.26797C0.473113 3.16356 0.420033 3.02538 0.4225 2.88259C0.424966 2.7398 0.482787 2.60354 0.58377 2.50255C0.684758 2.40157 0.821014 2.34375 0.963808 2.34128C1.1066 2.33882 1.24477 2.3919 1.34919 2.48933L1.90012 3.04026L1.90526 3.04466C2.63563 2.45842 3.51811 2.09274 4.44906 1.99056V1.22587H3.89814C3.75202 1.22587 3.61189 1.16783 3.50858 1.06451C3.40526 0.961194 3.34721 0.821064 3.34721 0.674949ZM4.99999 10.7753C6.02289 10.7752 7.00386 10.3687 7.72709 9.64535C8.45032 8.92198 8.85657 7.94094 8.85647 6.91804C8.85637 5.89514 8.44993 4.91417 7.72657 4.19094C7.0032 3.46771 6.02216 3.06146 4.99926 3.06156C3.97636 3.06166 2.99539 3.46809 2.27216 4.19146C1.54893 4.91483 1.14268 5.89587 1.14278 6.91877C1.14287 7.94167 1.54931 8.92264 2.27268 9.64587C2.99605 10.3691 3.97709 10.7753 4.99999 10.7753ZM5.28574 5.85365L6.26271 4.87667C6.31351 4.82403 6.37428 4.78203 6.44148 4.75313C6.50868 4.72422 6.58097 4.70899 6.65412 4.70832C6.72727 4.70765 6.79982 4.72156 6.86754 4.74923C6.93526 4.7769 6.99679 4.81777 7.04854 4.86948C7.1003 4.92118 7.14123 4.98267 7.16897 5.05037C7.1967 5.11806 7.21067 5.1906 7.21007 5.26375C7.20947 5.3369 7.19431 5.4092 7.16547 5.47643C7.13662 5.54366 7.09468 5.60447 7.04209 5.65532L6.06511 6.63303C6.10852 6.79635 6.11384 6.96746 6.08069 7.13317C6.04753 7.29888 5.97678 7.45477 5.87388 7.58883C5.77098 7.72288 5.63868 7.83153 5.48717 7.90639C5.33566 7.98125 5.16899 8.02033 4.99999 8.02062C4.84404 8.01928 4.69015 7.98482 4.54852 7.91953C4.40688 7.85424 4.28073 7.75961 4.17842 7.6419C4.07611 7.5242 3.99997 7.3861 3.95504 7.23675C3.91011 7.0874 3.89742 6.93022 3.91781 6.7756C3.9382 6.62098 3.9912 6.47245 4.07331 6.33986C4.15541 6.20726 4.26475 6.09362 4.39408 6.00645C4.52341 5.91929 4.66977 5.8606 4.82349 5.83425C4.97721 5.80791 5.13477 5.81452 5.28574 5.85365Z" fill="#33B5FF"/>
</svg>
