<svg width="18" height="18" viewBox="0 0 18 18" fill="none" xmlns="http://www.w3.org/2000/svg">
<path d="M2.91665 13.3749H6.92706V14.2864C6.92706 14.8182 6.7158 15.3282 6.33975 15.7043C5.9637 16.0803 5.45367 16.2916 4.92185 16.2916C4.39004 16.2916 3.88001 16.0803 3.50396 15.7043C3.12791 15.3282 2.91665 14.8182 2.91665 14.2864V13.3749ZM5.83331 4.71241C7.29165 4.71241 8.02081 6.81241 8.02081 8.27074C8.02081 8.99991 7.65623 9.72907 7.29165 10.8228L6.92706 11.9166H2.91665C2.91665 11.1874 2.55206 10.0937 2.55206 8.27074C2.55206 6.44782 4.00894 4.71241 5.83331 4.71241ZM14.6227 10.5297L14.4645 11.4273C14.3663 11.9455 14.0679 12.4041 13.634 12.7038C13.2 13.0036 12.6655 13.1203 12.1461 13.0287C11.6267 12.9371 11.1644 12.6446 10.8591 12.2145C10.5539 11.7845 10.4303 11.2514 10.5153 10.7309L10.6728 9.83407L14.6227 10.5297ZM13.2548 1.49313C15.0514 1.80959 16.1846 3.77178 15.8681 5.56699C15.5516 7.3622 15.0026 8.37574 14.8764 9.09397L10.9265 8.39761L10.7574 7.2572C10.5882 6.11678 10.3563 5.33511 10.4825 4.61761C10.7355 3.18115 11.8183 1.24011 13.2548 1.49313Z" fill="#009BF3"/>
</svg>
