<svg width="18" height="16" viewBox="0 0 18 16" fill="none" xmlns="http://www.w3.org/2000/svg">
<path d="M12.4368 0.5C13.8257 0.5 14.9891 1.01389 15.9268 2.04167C16.8646 3.06944 17.3332 4.29167 17.3327 5.70833C17.3327 5.95833 17.3188 6.205 17.291 6.44833C17.2632 6.69167 17.2146 6.93111 17.1452 7.16667H11.9368L10.5202 5.04167C10.4507 4.93056 10.3535 4.84028 10.2285 4.77083C10.1035 4.70139 9.97157 4.66667 9.83268 4.66667C9.65213 4.66667 9.48879 4.72222 9.34268 4.83333C9.19657 4.94444 9.09602 5.08333 9.04102 5.25L7.91602 8.625L7.18685 7.54167C7.1174 7.43056 7.02018 7.34028 6.89518 7.27083C6.77018 7.20139 6.63824 7.16667 6.49935 7.16667H0.853516C0.784071 6.93056 0.73546 6.69083 0.707682 6.4475C0.679904 6.20417 0.666016 5.96472 0.666016 5.72917C0.666016 4.29861 1.13129 3.06944 2.06185 2.04167C2.9924 1.01389 4.15213 0.5 5.54102 0.5C6.20768 0.5 6.83629 0.631944 7.42685 0.895833C8.0174 1.15972 8.54157 1.52778 8.99935 2C9.44379 1.52778 9.96129 1.15972 10.5518 0.895833C11.1424 0.631944 11.7707 0.5 12.4368 0.5ZM8.99935 15.5C8.74935 15.5 8.50963 15.4547 8.28018 15.3642C8.05074 15.2736 7.84601 15.1383 7.66602 14.9583L2.08268 9.35417C1.99935 9.27083 1.92296 9.1875 1.85352 9.10417C1.78407 9.02083 1.71463 8.93056 1.64518 8.83333H6.04102L7.45768 10.9583C7.52713 11.0694 7.62435 11.1597 7.74935 11.2292C7.87435 11.2986 8.00629 11.3333 8.14518 11.3333C8.32574 11.3333 8.4924 11.2778 8.64518 11.1667C8.79796 11.0556 8.90213 10.9167 8.95768 10.75L10.0827 7.375L10.791 8.45833C10.8743 8.56944 10.9785 8.65972 11.1035 8.72917C11.2285 8.79861 11.3605 8.83333 11.4993 8.83333H16.3327L16.1243 9.08333L15.916 9.33333L10.3118 14.9583C10.1313 15.1389 9.9299 15.2744 9.70768 15.365C9.48546 15.4556 9.24935 15.5006 8.99935 15.5Z" fill="#12B76A"/>
</svg>
