<svg width="278" height="214" viewBox="0 0 278 214" fill="none" xmlns="http://www.w3.org/2000/svg">
<path d="M278 188.028H0V188.168H278V188.028Z" fill="#EBEBEB"/>
<path d="M131.772 163.131H24.414C23.5729 163.129 22.7668 162.793 22.1727 162.195C21.5785 161.597 21.2447 160.788 21.2448 159.943V8.41846C21.2521 7.57887 21.589 6.77609 22.1824 6.18448C22.7758 5.59288 23.5777 5.26023 24.414 5.25879H131.772C132.614 5.25879 133.422 5.59462 134.017 6.19241C134.612 6.7902 134.947 7.60097 134.947 8.44637V159.943C134.947 160.789 134.612 161.599 134.017 162.197C133.422 162.795 132.614 163.131 131.772 163.131ZM24.414 5.37044C23.6098 5.37192 22.8391 5.6937 22.2709 6.26515C21.7028 6.83661 21.3837 7.61104 21.3838 8.41846V159.943C21.3837 160.751 21.7028 161.525 22.2709 162.096C22.8391 162.668 23.6098 162.99 24.414 162.991H131.772C132.577 162.99 133.348 162.668 133.917 162.097C134.486 161.525 134.806 160.751 134.808 159.943V8.41846C134.806 7.61053 134.486 6.83611 133.917 6.26481C133.348 5.69352 132.577 5.37191 131.772 5.37044H24.414Z" fill="#EBEBEB"/>
<path d="M252.04 163.131H144.677C143.835 163.129 143.029 162.793 142.433 162.195C141.838 161.598 141.503 160.788 141.502 159.943V8.41846C141.511 7.57836 141.849 6.77559 142.443 6.18413C143.037 5.59268 143.84 5.26021 144.677 5.25879H252.04C252.876 5.26169 253.676 5.59499 254.268 6.18644C254.86 6.77789 255.197 7.57984 255.204 8.41846V159.943C255.204 160.787 254.871 161.596 254.278 162.193C253.685 162.791 252.88 163.128 252.04 163.131ZM144.677 5.37044C143.872 5.37191 143.101 5.69352 142.532 6.26481C141.963 6.83611 141.642 7.61053 141.641 8.41846V159.943C141.642 160.751 141.963 161.525 142.532 162.097C143.101 162.668 143.872 162.99 144.677 162.991H252.04C252.845 162.99 253.616 162.668 254.185 162.097C254.754 161.525 255.075 160.751 255.076 159.943V8.41846C255.075 7.61053 254.754 6.83611 254.185 6.26481C253.616 5.69352 252.845 5.37191 252.04 5.37044H144.677Z" fill="#EBEBEB"/>
<path d="M250.144 197.01H235.688V197.15H250.144V197.01Z" fill="#EBEBEB"/>
<path d="M197.953 198.529H172.916V198.669H197.953V198.529Z" fill="#EBEBEB"/>
<path d="M235.132 191.83H201.333V191.97H235.132V191.83Z" fill="#EBEBEB"/>
<path d="M39.8596 192.768H29.1677V192.908H39.8596V192.768Z" fill="#EBEBEB"/>
<path d="M75.5548 192.768H44.8136V192.908H75.5548V192.768Z" fill="#EBEBEB"/>
<path d="M135.742 195.124H94.3365V195.263H135.742V195.124Z" fill="#EBEBEB"/>
<path d="M101.364 59.9385H44.8136V188.028H101.364V59.9385Z" fill="#F5F5F5"/>
<path d="M96.049 64.4326H50.1178V183.529H96.049V64.4326Z" fill="#E6E6E6"/>
<path d="M92.8965 70.0151H53.2815V72.7394H92.8965V70.0151Z" fill="#FAFAFA"/>
<path d="M92.8965 76.2065H53.2815V78.9308H92.8965V76.2065Z" fill="#FAFAFA"/>
<path d="M92.8965 82.3916H53.2815V85.1158H92.8965V82.3916Z" fill="#FAFAFA"/>
<path d="M92.8965 88.5825H53.2815V91.3068H92.8965V88.5825Z" fill="#FAFAFA"/>
<path d="M92.8965 94.7734H53.2815V97.4977H92.8965V94.7734Z" fill="#FAFAFA"/>
<path d="M92.8965 100.959H53.2815V103.683H92.8965V100.959Z" fill="#FAFAFA"/>
<path d="M92.8965 107.149H53.2815V109.873H92.8965V107.149Z" fill="#FAFAFA"/>
<path d="M92.8965 113.335H53.2815V116.059H92.8965V113.335Z" fill="#FAFAFA"/>
<path d="M92.8965 119.526H53.2815V122.25H92.8965V119.526Z" fill="#FAFAFA"/>
<path d="M92.8965 125.717H53.2815V128.441H92.8965V125.717Z" fill="#FAFAFA"/>
<path d="M92.8965 131.902H53.2815V134.627H92.8965V131.902Z" fill="#FAFAFA"/>
<path d="M92.8965 138.093H53.2815V140.817H92.8965V138.093Z" fill="#FAFAFA"/>
<path d="M92.8965 144.278H53.2815V147.003H92.8965V144.278Z" fill="#FAFAFA"/>
<path d="M92.8965 150.469H53.2815V153.193H92.8965V150.469Z" fill="#FAFAFA"/>
<path d="M92.8965 156.661H53.2815V159.385H92.8965V156.661Z" fill="#FAFAFA"/>
<path d="M92.8965 162.846H53.2815V165.57H92.8965V162.846Z" fill="#FAFAFA"/>
<path d="M92.8965 169.037H53.2815V171.761H92.8965V169.037Z" fill="#FAFAFA"/>
<path d="M92.8965 175.222H53.2815V177.946H92.8965V175.222Z" fill="#FAFAFA"/>
<path d="M29.1678 188.022H44.8136L44.8136 59.933H29.1678L29.1678 188.022Z" fill="#E6E6E6"/>
<path d="M93.5915 57.7334H49.2115V59.9385H93.5915V57.7334Z" fill="#F0F0F0"/>
<path d="M36.9351 59.9385H49.2115V57.7334H36.9351V59.9385Z" fill="#E0E0E0"/>
<path d="M42.0057 69.3619C42.9423 69.3619 43.7015 67.5024 43.7015 65.2085C43.7015 62.9147 42.9423 61.0552 42.0057 61.0552C41.0692 61.0552 40.3099 62.9147 40.3099 65.2085C40.3099 67.5024 41.0692 69.3619 42.0057 69.3619Z" fill="#F5F5F5"/>
<path d="M29.7239 65.2084C29.7239 67.5028 30.2354 69.3618 30.8692 69.3618C31.5031 69.3618 32.0146 67.5028 32.0146 65.2084C32.0146 62.9141 31.5031 61.083 30.8692 61.083C30.2354 61.083 29.7239 62.9141 29.7239 65.2084Z" fill="#F5F5F5"/>
<path d="M42.0057 186.906C42.9423 186.906 43.7015 185.047 43.7015 182.753C43.7015 180.459 42.9423 178.6 42.0057 178.6C41.0692 178.6 40.3099 180.459 40.3099 182.753C40.3099 185.047 41.0692 186.906 42.0057 186.906Z" fill="#F5F5F5"/>
<path d="M29.7239 182.781C29.7239 185.081 30.2354 186.94 30.8692 186.94C31.5031 186.94 32.0146 185.081 32.0146 182.781C32.0146 180.481 31.5031 178.627 30.8692 178.627C30.2354 178.627 29.7239 180.458 29.7239 182.781Z" fill="#F5F5F5"/>
<path d="M206.643 88.5044H162.708V188.023H206.643V88.5044Z" fill="#F5F5F5"/>
<path d="M202.517 91.9985H166.828V184.533H202.517V91.9985Z" fill="#E6E6E6"/>
<path d="M200.066 96.3364H169.285V98.4522H200.066V96.3364Z" fill="#FAFAFA"/>
<path d="M200.066 101.149H169.285V103.265H200.066V101.149Z" fill="#FAFAFA"/>
<path d="M200.066 105.955H169.285V108.071H200.066V105.955Z" fill="#FAFAFA"/>
<path d="M200.066 110.761H169.285V112.877H200.066V110.761Z" fill="#FAFAFA"/>
<path d="M200.066 115.573H169.285V117.689H200.066V115.573Z" fill="#FAFAFA"/>
<path d="M200.066 120.38H169.285V122.496H200.066V120.38Z" fill="#FAFAFA"/>
<path d="M200.066 125.187H169.285V127.303H200.066V125.187Z" fill="#FAFAFA"/>
<path d="M200.066 129.999H169.285V132.114H200.066V129.999Z" fill="#FAFAFA"/>
<path d="M200.066 134.805H169.285V136.92H200.066V134.805Z" fill="#FAFAFA"/>
<path d="M200.066 139.611H169.285V141.727H200.066V139.611Z" fill="#FAFAFA"/>
<path d="M200.066 144.424H169.285V146.54H200.066V144.424Z" fill="#FAFAFA"/>
<path d="M200.066 149.23H169.285V151.346H200.066V149.23Z" fill="#FAFAFA"/>
<path d="M200.066 154.037H169.285V156.152H200.066V154.037Z" fill="#FAFAFA"/>
<path d="M200.066 158.849H169.285V160.965H200.066V158.849Z" fill="#FAFAFA"/>
<path d="M200.066 163.655H169.285V165.771H200.066V163.655Z" fill="#FAFAFA"/>
<path d="M200.066 168.462H169.285V170.578H200.066V168.462Z" fill="#FAFAFA"/>
<path d="M200.066 173.273H169.285V175.389H200.066V173.273Z" fill="#FAFAFA"/>
<path d="M200.066 178.08H169.285V180.196H200.066V178.08Z" fill="#FAFAFA"/>
<path d="M150.554 188.028H162.708V88.5098H150.554V188.028Z" fill="#E6E6E6"/>
<path d="M200.61 86.7959H166.127V88.5097H200.61V86.7959Z" fill="#F0F0F0"/>
<path d="M156.581 88.5044H166.122V86.7906H156.581V88.5044Z" fill="#E0E0E0"/>
<path d="M159.211 92.6017C159.211 94.3881 159.8 95.8339 160.523 95.8339C161.246 95.8339 161.841 94.3881 161.841 92.6017C161.841 90.8153 161.251 89.375 160.523 89.375C159.794 89.375 159.211 90.8209 159.211 92.6017Z" fill="#F5F5F5"/>
<path d="M150.982 92.6017C150.982 94.3881 151.382 95.8339 151.871 95.8339C152.361 95.8339 152.767 94.3881 152.767 92.6017C152.767 90.8153 152.366 89.375 151.871 89.375C151.377 89.375 150.982 90.8209 150.982 92.6017Z" fill="#F5F5F5"/>
<path d="M159.211 183.931C159.211 185.717 159.8 187.157 160.523 187.157C161.246 187.157 161.841 185.717 161.841 183.931C161.841 182.144 161.251 180.704 160.523 180.704C159.794 180.704 159.211 182.15 159.211 183.931Z" fill="#F5F5F5"/>
<path d="M150.982 183.931C150.982 185.717 151.382 187.157 151.871 187.157C152.361 187.157 152.767 185.717 152.767 183.931C152.767 182.144 152.366 180.704 151.871 180.704C151.377 180.704 150.982 182.15 150.982 183.931Z" fill="#F5F5F5"/>
<path d="M160.523 92.9032H134.602C132.884 92.9018 131.237 92.2163 130.021 90.9971C128.806 89.7779 128.122 88.1246 128.119 86.3997V77.6073C128.118 76.0304 127.493 74.5185 126.383 73.403C125.273 72.2874 123.768 71.6593 122.198 71.6564H101.359V71.0981H122.198C123.916 71.1011 125.562 71.788 126.777 73.0082C127.991 74.2285 128.674 75.8824 128.675 77.6073V86.3773C128.674 87.16 128.826 87.9353 129.123 88.6589C129.42 89.3825 129.856 90.0402 130.407 90.5944C130.957 91.1487 131.611 91.5885 132.331 91.8889C133.051 92.1893 133.822 92.3442 134.602 92.345H160.523V92.9032Z" fill="#E0E0E0"/>
<path d="M151.871 184.21H144.004C142.287 184.207 140.641 183.521 139.427 182.302C138.213 181.083 137.53 179.43 137.527 177.706V126.605C137.524 125.028 136.898 123.516 135.787 122.402C134.676 121.287 133.17 120.661 131.6 120.659H101.359V120.101H131.622C133.34 120.103 134.987 120.788 136.202 122.007C137.418 123.226 138.102 124.88 138.105 126.605V177.706C138.108 179.278 138.729 180.786 139.835 181.899C140.94 183.013 142.438 183.643 144.004 183.652H151.849L151.871 184.21Z" fill="#E0E0E0"/>
<path d="M239.992 29.6597H210.641V32.6742H239.992V29.6597Z" fill="#F0F0F0"/>
<path d="M202.517 32.6792H210.641V29.6647H202.517V32.6792Z" fill="#E0E0E0"/>
<path d="M239.992 22.2798H210.641V25.2943H239.992V22.2798Z" fill="#F0F0F0"/>
<path d="M202.517 25.2881H210.641V22.2736H202.517V25.2881Z" fill="#E0E0E0"/>
<path d="M239.992 14.8936H210.641V17.9081H239.992V14.8936Z" fill="#F0F0F0"/>
<path d="M202.517 17.9087H210.641V14.8942H202.517V17.9087Z" fill="#E0E0E0"/>
<path d="M239.992 7.50781H210.641V10.5223H239.992V7.50781Z" fill="#F0F0F0"/>
<path d="M202.517 10.5229L210.641 10.5229V7.50842L202.517 7.50842V10.5229Z" fill="#E0E0E0"/>
<g opacity="0.4">
<path d="M237.067 0.00488281H212.297V29.6645H237.067V0.00488281Z" fill="#F0F0F0"/>
<path d="M205.442 29.6597H212.297V6.67572e-05H205.442V29.6597Z" fill="#E0E0E0"/>
</g>
<path d="M164.231 78.6899H142.798V80.8894H164.231V78.6899Z" fill="#F0F0F0"/>
<path d="M136.871 80.8901H142.798V78.6906H136.871V80.8901Z" fill="#E0E0E0"/>
<path d="M164.231 73.2974H142.798V75.4969H164.231V73.2974Z" fill="#F0F0F0"/>
<path d="M136.871 75.4976H142.798V73.2981H136.871V75.4976Z" fill="#E0E0E0"/>
<path d="M164.231 67.9048H142.798V70.1043H164.231V67.9048Z" fill="#F0F0F0"/>
<path d="M136.871 70.1099H142.798V67.9104H136.871V70.1099Z" fill="#E0E0E0"/>
<path d="M164.231 62.5122H142.798V64.7117H164.231V62.5122Z" fill="#F0F0F0"/>
<path d="M136.871 64.7178H142.798V62.5183H136.871V64.7178Z" fill="#E0E0E0"/>
<g opacity="0.4">
<path d="M162.096 57.0361H144.01V78.6905H162.096V57.0361Z" fill="#F0F0F0"/>
<path d="M139.006 78.6899H144.01V57.0356H139.006V78.6899Z" fill="#E0E0E0"/>
</g>
<path d="M262.866 148.476H235.244V151.312H262.866V148.476Z" fill="#F0F0F0"/>
<path d="M227.604 151.312H235.244V148.476H227.604V151.312Z" fill="#E0E0E0"/>
<path d="M262.866 141.526H235.244V144.362H262.866V141.526Z" fill="#F0F0F0"/>
<path d="M227.604 144.362H235.244V141.526H227.604V144.362Z" fill="#E0E0E0"/>
<path d="M262.866 134.576H235.244V137.412H262.866V134.576Z" fill="#F0F0F0"/>
<path d="M227.604 137.418H235.244V134.582H227.604V137.418Z" fill="#E0E0E0"/>
<path d="M262.866 127.631H235.244V130.467H262.866V127.631Z" fill="#F0F0F0"/>
<path d="M227.604 130.462H235.244V127.627H227.604V130.462Z" fill="#E0E0E0"/>
<g opacity="0.4">
<path d="M260.113 120.564H236.8V148.477H260.113V120.564Z" fill="#F0F0F0"/>
<path d="M230.356 148.477H236.806V120.565H230.356V148.477Z" fill="#E0E0E0"/>
</g>
<path d="M139 213.239C198.538 213.239 246.803 210.41 246.803 206.919C246.803 203.429 198.538 200.6 139 200.6C79.4621 200.6 31.1971 203.429 31.1971 206.919C31.1971 210.41 79.4621 213.239 139 213.239Z" fill="#F5F5F5"/>
<path d="M237.618 38.9092H177.075V97.2124H237.618V38.9092Z" fill="#00A3FF"/>
<path opacity="0.4" d="M237.618 38.9092H177.075V97.2124H237.618V38.9092Z" fill="white"/>
<path opacity="0.7" d="M237.612 38.9092H196.346V97.2124H237.612V38.9092Z" fill="white"/>
<path d="M235.549 41.8848H198.409V49.1029H235.549V41.8848Z" fill="#00A3FF"/>
<path d="M235.549 50.9116H198.409V58.1297H235.549V50.9116Z" fill="#00A3FF"/>
<path d="M235.549 59.9385H198.409V67.1566H235.549V59.9385Z" fill="#00A3FF"/>
<path d="M235.549 68.9595H198.409V76.1776H235.549V68.9595Z" fill="#00A3FF"/>
<path d="M235.549 77.9863H198.409V85.2045H235.549V77.9863Z" fill="#00A3FF"/>
<path d="M235.549 87.0132H198.409V94.2313H235.549V87.0132Z" fill="#00A3FF"/>
<path d="M194.189 41.8848H179.238V49.1029H194.189V41.8848Z" fill="#00A3FF"/>
<path d="M194.189 50.9116H179.238V58.1297H194.189V50.9116Z" fill="#00A3FF"/>
<path d="M194.189 59.9385H179.238V67.1566H194.189V59.9385Z" fill="#00A3FF"/>
<path d="M194.189 68.9595H179.238V76.1776H194.189V68.9595Z" fill="#00A3FF"/>
<path d="M194.189 77.9863H179.238V85.2045H194.189V77.9863Z" fill="#00A3FF"/>
<path d="M194.189 87.0132H179.238V94.2313H194.189V87.0132Z" fill="#00A3FF"/>
<path opacity="0.4" d="M187.633 43.3306H180.616V47.6626H187.633V43.3306Z" fill="#263238"/>
<path opacity="0.4" d="M187.633 52.3521H180.616V56.684H187.633V52.3521Z" fill="#263238"/>
<path opacity="0.4" d="M187.633 61.3789H180.616V65.7109H187.633V61.3789Z" fill="#263238"/>
<path opacity="0.4" d="M187.633 70.4053H180.616V74.7373H187.633V70.4053Z" fill="#263238"/>
<path opacity="0.4" d="M187.633 79.4321H180.616V83.7641H187.633V79.4321Z" fill="#263238"/>
<path opacity="0.4" d="M187.633 88.459H180.616V92.791H187.633V88.459Z" fill="#263238"/>
<path opacity="0.7" d="M233.731 42.8228H232.864V48.1596H233.731V42.8228Z" fill="white"/>
<path opacity="0.7" d="M232.063 42.8228H231.196V48.1596H232.063V42.8228Z" fill="white"/>
<path opacity="0.7" d="M230.395 42.8228H229.528V48.1596H230.395V42.8228Z" fill="white"/>
<path opacity="0.7" d="M228.727 42.8228H227.86V48.1596H228.727V42.8228Z" fill="white"/>
<path opacity="0.7" d="M227.059 42.8228H226.192V48.1596H227.059V42.8228Z" fill="white"/>
<path opacity="0.7" d="M233.731 51.8496H232.864V57.1864H233.731V51.8496Z" fill="white"/>
<path opacity="0.7" d="M232.063 51.8496H231.196V57.1864H232.063V51.8496Z" fill="white"/>
<path opacity="0.7" d="M230.395 51.8496H229.528V57.1864H230.395V51.8496Z" fill="white"/>
<path opacity="0.7" d="M228.727 51.8496H227.86V57.1864H228.727V51.8496Z" fill="white"/>
<path opacity="0.7" d="M227.059 51.8496H226.192V57.1864H227.059V51.8496Z" fill="white"/>
<path opacity="0.7" d="M233.731 60.8765H232.864V66.2133H233.731V60.8765Z" fill="white"/>
<path opacity="0.7" d="M232.063 60.8765H231.196V66.2133H232.063V60.8765Z" fill="white"/>
<path opacity="0.7" d="M230.395 60.8765H229.528V66.2133H230.395V60.8765Z" fill="white"/>
<path opacity="0.7" d="M228.727 60.8765H227.86V66.2133H228.727V60.8765Z" fill="white"/>
<path opacity="0.7" d="M227.059 60.8765H226.192V66.2133H227.059V60.8765Z" fill="white"/>
<path opacity="0.7" d="M233.731 69.9033H232.864V75.2457H233.731V69.9033Z" fill="white"/>
<path opacity="0.7" d="M232.063 69.9033H231.196V75.2457H232.063V69.9033Z" fill="white"/>
<path opacity="0.7" d="M230.395 69.9033H229.528V75.2457H230.395V69.9033Z" fill="white"/>
<path opacity="0.7" d="M228.727 69.9033H227.86V75.2457H228.727V69.9033Z" fill="white"/>
<path opacity="0.7" d="M227.059 69.9033H226.192V75.2457H227.059V69.9033Z" fill="white"/>
<path opacity="0.7" d="M233.731 78.9302H232.864V84.2726H233.731V78.9302Z" fill="white"/>
<path opacity="0.7" d="M232.063 78.9302H231.196V84.2726H232.063V78.9302Z" fill="white"/>
<path opacity="0.7" d="M230.395 78.9302H229.528V84.2726H230.395V78.9302Z" fill="white"/>
<path opacity="0.7" d="M228.727 78.9302H227.86V84.2726H228.727V78.9302Z" fill="white"/>
<path opacity="0.7" d="M227.059 78.9302H226.192V84.2726H227.059V78.9302Z" fill="white"/>
<path opacity="0.7" d="M233.731 87.957H232.864V93.2939H233.731V87.957Z" fill="white"/>
<path opacity="0.7" d="M232.063 87.957H231.196V93.2939H232.063V87.957Z" fill="white"/>
<path opacity="0.7" d="M230.395 87.957H229.528V93.2939H230.395V87.957Z" fill="white"/>
<path opacity="0.7" d="M228.727 87.957H227.86V93.2939H228.727V87.957Z" fill="white"/>
<path opacity="0.7" d="M227.059 87.957H226.192V93.2939H227.059V87.957Z" fill="white"/>
<path opacity="0.2" d="M212.081 90.6254C212.081 90.4499 212.132 90.2782 212.23 90.1323C212.327 89.9863 212.465 89.8725 212.626 89.8054C212.788 89.7382 212.966 89.7206 213.137 89.7548C213.309 89.7891 213.466 89.8736 213.59 89.9978C213.713 90.1219 213.798 90.2801 213.832 90.4522C213.866 90.6244 213.848 90.8029 213.781 90.9651C213.714 91.1273 213.601 91.2659 213.456 91.3634C213.31 91.461 213.139 91.513 212.965 91.513C212.73 91.513 212.505 91.4195 212.339 91.253C212.174 91.0866 212.081 90.8608 212.081 90.6254Z" fill="white"/>
<path opacity="0.2" d="M206.521 90.6254C206.521 90.4499 206.573 90.2782 206.67 90.1323C206.767 89.9863 206.905 89.8725 207.066 89.8054C207.228 89.7382 207.406 89.7206 207.577 89.7548C207.749 89.7891 207.906 89.8736 208.03 89.9978C208.154 90.1219 208.238 90.2801 208.272 90.4522C208.306 90.6244 208.288 90.8029 208.222 90.9651C208.155 91.1273 208.041 91.2659 207.896 91.3634C207.751 91.461 207.58 91.513 207.405 91.513C207.17 91.513 206.945 91.4195 206.78 91.253C206.614 91.0866 206.521 90.8608 206.521 90.6254Z" fill="white"/>
<path opacity="0.4" d="M200.961 90.6254C200.961 90.4499 201.012 90.2782 201.11 90.1323C201.207 89.9863 201.345 89.8725 201.506 89.8054C201.668 89.7382 201.846 89.7206 202.017 89.7548C202.189 89.7891 202.346 89.8736 202.47 89.9978C202.593 90.1219 202.678 90.2801 202.712 90.4522C202.746 90.6244 202.728 90.8029 202.661 90.9651C202.594 91.1273 202.481 91.2659 202.336 91.3634C202.19 91.461 202.019 91.513 201.845 91.513C201.61 91.513 201.385 91.4195 201.219 91.253C201.054 91.0866 200.961 90.8608 200.961 90.6254Z" fill="white"/>
<path opacity="0.4" d="M212.081 81.5985C212.081 81.423 212.132 81.2514 212.23 81.1054C212.327 80.9594 212.465 80.8457 212.626 80.7785C212.788 80.7113 212.966 80.6937 213.137 80.728C213.309 80.7622 213.466 80.8468 213.59 80.9709C213.713 81.095 213.798 81.2532 213.832 81.4254C213.866 81.5976 213.848 81.776 213.781 81.9382C213.714 82.1004 213.601 82.239 213.456 82.3366C213.31 82.4341 213.139 82.4862 212.965 82.4862C212.73 82.4862 212.505 82.3926 212.339 82.2262C212.174 82.0597 212.081 81.834 212.081 81.5985Z" fill="white"/>
<path opacity="0.2" d="M206.521 81.5985C206.521 81.423 206.573 81.2514 206.67 81.1054C206.767 80.9594 206.905 80.8457 207.066 80.7785C207.228 80.7113 207.406 80.6937 207.577 80.728C207.749 80.7622 207.906 80.8468 208.03 80.9709C208.154 81.095 208.238 81.2532 208.272 81.4254C208.306 81.5976 208.288 81.776 208.222 81.9382C208.155 82.1004 208.041 82.239 207.896 82.3366C207.751 82.4341 207.58 82.4862 207.405 82.4862C207.17 82.4862 206.945 82.3926 206.78 82.2262C206.614 82.0597 206.521 81.834 206.521 81.5985Z" fill="white"/>
<path opacity="0.4" d="M200.961 81.5985C200.961 81.423 201.012 81.2514 201.11 81.1054C201.207 80.9594 201.345 80.8457 201.506 80.7785C201.668 80.7113 201.846 80.6937 202.017 80.728C202.189 80.7622 202.346 80.8468 202.47 80.9709C202.593 81.095 202.678 81.2532 202.712 81.4254C202.746 81.5976 202.728 81.776 202.661 81.9382C202.594 82.1004 202.481 82.239 202.336 82.3366C202.19 82.4341 202.019 82.4862 201.845 82.4862C201.61 82.4862 201.385 82.3926 201.219 82.2262C201.054 82.0597 200.961 81.834 200.961 81.5985Z" fill="white"/>
<path opacity="0.2" d="M212.081 72.5717C212.081 72.3961 212.132 72.2245 212.23 72.0786C212.327 71.9326 212.465 71.8188 212.626 71.7516C212.788 71.6845 212.966 71.6669 213.137 71.7011C213.309 71.7354 213.466 71.8199 213.59 71.9441C213.713 72.0682 213.798 72.2263 213.832 72.3985C213.866 72.5707 213.848 72.7492 213.781 72.9114C213.714 73.0736 213.601 73.2122 213.456 73.3097C213.31 73.4072 213.139 73.4593 212.965 73.4593C212.73 73.4593 212.505 73.3658 212.339 73.1993C212.174 73.0329 212.081 72.8071 212.081 72.5717Z" fill="white"/>
<path opacity="0.4" d="M206.521 72.5717C206.521 72.3961 206.573 72.2245 206.67 72.0786C206.767 71.9326 206.905 71.8188 207.066 71.7516C207.228 71.6845 207.406 71.6669 207.577 71.7011C207.749 71.7354 207.906 71.8199 208.03 71.9441C208.154 72.0682 208.238 72.2263 208.272 72.3985C208.306 72.5707 208.288 72.7492 208.222 72.9114C208.155 73.0736 208.041 73.2122 207.896 73.3097C207.751 73.4072 207.58 73.4593 207.405 73.4593C207.17 73.4593 206.945 73.3658 206.78 73.1993C206.614 73.0329 206.521 72.8071 206.521 72.5717Z" fill="white"/>
<path opacity="0.2" d="M200.961 72.5717C200.961 72.3961 201.012 72.2245 201.11 72.0786C201.207 71.9326 201.345 71.8188 201.506 71.7516C201.668 71.6845 201.846 71.6669 202.017 71.7011C202.189 71.7354 202.346 71.8199 202.47 71.9441C202.593 72.0682 202.678 72.2263 202.712 72.3985C202.746 72.5707 202.728 72.7492 202.661 72.9114C202.594 73.0736 202.481 73.2122 202.336 73.3097C202.19 73.4072 202.019 73.4593 201.845 73.4593C201.61 73.4593 201.385 73.3658 201.219 73.1993C201.054 73.0329 200.961 72.8071 200.961 72.5717Z" fill="white"/>
<path opacity="0.4" d="M212.081 63.5447C212.081 63.3684 212.133 63.1962 212.231 63.0499C212.329 62.9035 212.468 62.7898 212.63 62.7232C212.793 62.6565 212.971 62.6399 213.143 62.6755C213.315 62.7112 213.473 62.7974 213.596 62.9232C213.719 63.049 213.801 63.2087 213.834 63.382C213.866 63.5553 213.846 63.7342 213.776 63.8961C213.707 64.058 213.591 64.1954 213.444 64.2909C213.296 64.3864 213.123 64.4356 212.948 64.4323C212.716 64.4279 212.496 64.3324 212.334 64.1665C212.171 64.0005 212.081 63.7772 212.081 63.5447Z" fill="white"/>
<path opacity="0.2" d="M206.521 63.5447C206.521 63.3684 206.573 63.1962 206.671 63.0499C206.769 62.9035 206.908 62.7898 207.07 62.7232C207.233 62.6565 207.412 62.6399 207.583 62.6755C207.755 62.7112 207.913 62.7974 208.036 62.9232C208.159 63.049 208.242 63.2087 208.274 63.382C208.306 63.5553 208.286 63.7342 208.217 63.8961C208.147 64.058 208.031 64.1954 207.884 64.2909C207.736 64.3864 207.564 64.4356 207.388 64.4323C207.157 64.4279 206.936 64.3324 206.774 64.1665C206.612 64.0005 206.521 63.7772 206.521 63.5447Z" fill="white"/>
<path opacity="0.2" d="M200.961 63.5447C200.961 63.3684 201.013 63.1962 201.111 63.0499C201.209 62.9035 201.348 62.7898 201.51 62.7232C201.673 62.6565 201.851 62.6399 202.023 62.6755C202.195 62.7112 202.353 62.7974 202.476 62.9232C202.599 63.049 202.681 63.2087 202.714 63.382C202.746 63.5553 202.726 63.7342 202.656 63.8961C202.587 64.058 202.471 64.1954 202.324 64.2909C202.176 64.3864 202.003 64.4356 201.828 64.4323C201.596 64.4279 201.376 64.3324 201.214 64.1665C201.051 64.0005 200.961 63.7772 200.961 63.5447Z" fill="white"/>
<path opacity="0.2" d="M212.081 54.518C212.081 54.3424 212.132 54.1708 212.23 54.0249C212.327 53.8789 212.465 53.7651 212.626 53.6979C212.788 53.6308 212.966 53.6132 213.137 53.6474C213.309 53.6817 213.466 53.7662 213.59 53.8903C213.713 54.0145 213.798 54.1726 213.832 54.3448C213.866 54.517 213.848 54.6955 213.781 54.8577C213.714 55.0198 213.601 55.1585 213.456 55.256C213.31 55.3535 213.139 55.4056 212.965 55.4056C212.73 55.4056 212.505 55.3121 212.339 55.1456C212.174 54.9792 212.081 54.7534 212.081 54.518Z" fill="white"/>
<path opacity="0.4" d="M206.521 54.518C206.521 54.3424 206.573 54.1708 206.67 54.0249C206.767 53.8789 206.905 53.7651 207.066 53.6979C207.228 53.6308 207.406 53.6132 207.577 53.6474C207.749 53.6817 207.906 53.7662 208.03 53.8903C208.154 54.0145 208.238 54.1726 208.272 54.3448C208.306 54.517 208.288 54.6955 208.222 54.8577C208.155 55.0198 208.041 55.1585 207.896 55.256C207.751 55.3535 207.58 55.4056 207.405 55.4056C207.17 55.4056 206.945 55.3121 206.78 55.1456C206.614 54.9792 206.521 54.7534 206.521 54.518Z" fill="white"/>
<path opacity="0.4" d="M200.961 54.518C200.961 54.3424 201.012 54.1708 201.11 54.0249C201.207 53.8789 201.345 53.7651 201.506 53.6979C201.668 53.6308 201.846 53.6132 202.017 53.6474C202.189 53.6817 202.346 53.7662 202.47 53.8903C202.593 54.0145 202.678 54.1726 202.712 54.3448C202.746 54.517 202.728 54.6955 202.661 54.8577C202.594 55.0198 202.481 55.1585 202.336 55.256C202.19 55.3535 202.019 55.4056 201.845 55.4056C201.61 55.4056 201.385 55.3121 201.219 55.1456C201.054 54.9792 200.961 54.7534 200.961 54.518Z" fill="white"/>
<path opacity="0.4" d="M212.081 45.4967C212.079 45.3209 212.13 45.1488 212.227 45.0021C212.323 44.8554 212.461 44.7407 212.622 44.6727C212.784 44.6047 212.962 44.5863 213.134 44.6199C213.306 44.6535 213.464 44.7376 213.588 44.8615C213.712 44.9854 213.797 45.1436 213.831 45.3159C213.866 45.4882 213.849 45.667 213.782 45.8295C213.715 45.992 213.602 46.131 213.456 46.2288C213.311 46.3265 213.14 46.3787 212.965 46.3787C212.731 46.3787 212.507 46.286 212.341 46.1207C212.176 45.9555 212.082 45.7312 212.081 45.4967Z" fill="white"/>
<path opacity="0.2" d="M206.521 45.4967C206.52 45.3209 206.571 45.1488 206.667 45.0021C206.764 44.8554 206.901 44.7407 207.063 44.6727C207.224 44.6047 207.402 44.5863 207.574 44.6199C207.746 44.6535 207.904 44.7376 208.028 44.8615C208.152 44.9854 208.237 45.1436 208.271 45.3159C208.306 45.4882 208.289 45.667 208.222 45.8295C208.155 45.992 208.042 46.131 207.897 46.2288C207.751 46.3265 207.58 46.3787 207.405 46.3787C207.171 46.3787 206.947 46.286 206.782 46.1207C206.616 45.9555 206.522 45.7312 206.521 45.4967Z" fill="white"/>
<path opacity="0.4" d="M200.961 45.4967C200.959 45.3209 201.01 45.1488 201.107 45.0021C201.203 44.8554 201.341 44.7407 201.502 44.6727C201.664 44.6047 201.842 44.5863 202.014 44.6199C202.186 44.6535 202.344 44.7376 202.468 44.8615C202.592 44.9854 202.677 45.1436 202.711 45.3159C202.746 45.4882 202.729 45.667 202.662 45.8295C202.595 45.992 202.482 46.131 202.336 46.2288C202.191 46.3265 202.02 46.3787 201.845 46.3787C201.611 46.3787 201.387 46.286 201.221 46.1207C201.056 45.9555 200.962 45.7312 200.961 45.4967Z" fill="white"/>
<path d="M126.012 148.61H65.469V206.913H126.012V148.61Z" fill="#00A3FF"/>
<path opacity="0.4" d="M126.012 148.61H65.469V206.913H126.012V148.61Z" fill="white"/>
<path opacity="0.7" d="M126.006 148.61H84.74V206.913H126.006V148.61Z" fill="white"/>
<path d="M123.943 151.591H86.8026V158.809H123.943V151.591Z" fill="#00A3FF"/>
<path d="M123.943 160.618H86.8026V167.836H123.943V160.618Z" fill="#00A3FF"/>
<path d="M123.943 169.639H86.8026V176.857H123.943V169.639Z" fill="#00A3FF"/>
<path d="M123.943 178.666H86.8026V185.884H123.943V178.666Z" fill="#00A3FF"/>
<path d="M123.943 187.693H86.8026V194.911H123.943V187.693Z" fill="#00A3FF"/>
<path d="M123.943 196.72H86.8026V203.938H123.943V196.72Z" fill="#00A3FF"/>
<path d="M82.5827 151.591H67.6318V158.809H82.5827V151.591Z" fill="#00A3FF"/>
<path d="M82.5827 160.618H67.6318V167.836H82.5827V160.618Z" fill="#00A3FF"/>
<path d="M82.5827 169.639H67.6318V176.857H82.5827V169.639Z" fill="#00A3FF"/>
<path d="M82.5827 178.666H67.6318V185.884H82.5827V178.666Z" fill="#00A3FF"/>
<path d="M82.5827 187.693H67.6318V194.911H82.5827V187.693Z" fill="#00A3FF"/>
<path d="M82.5827 196.72H67.6318V203.938H82.5827V196.72Z" fill="#00A3FF"/>
<path opacity="0.4" d="M76.0273 153.031H69.0106V157.363H76.0273V153.031Z" fill="#263238"/>
<path opacity="0.4" d="M76.0273 162.058H69.0106V166.39H76.0273V162.058Z" fill="#263238"/>
<path opacity="0.4" d="M76.0273 171.085H69.0106V175.417H76.0273V171.085Z" fill="#263238"/>
<path opacity="0.4" d="M76.0273 180.112H69.0106V184.444H76.0273V180.112Z" fill="#263238"/>
<path opacity="0.4" d="M76.0273 189.139H69.0106V193.471H76.0273V189.139Z" fill="#263238"/>
<path opacity="0.4" d="M76.0273 198.166H69.0106V202.498H76.0273V198.166Z" fill="#263238"/>
<path opacity="0.7" d="M122.125 152.529H121.258V157.872H122.125V152.529Z" fill="white"/>
<path opacity="0.7" d="M120.457 152.529H119.59V157.872H120.457V152.529Z" fill="white"/>
<path opacity="0.7" d="M118.789 152.529H117.922V157.872H118.789V152.529Z" fill="white"/>
<path opacity="0.7" d="M117.121 152.529H116.254V157.872H117.121V152.529Z" fill="white"/>
<path opacity="0.7" d="M115.453 152.529H114.586V157.872H115.453V152.529Z" fill="white"/>
<path opacity="0.7" d="M122.125 161.556H121.258V166.893H122.125V161.556Z" fill="white"/>
<path opacity="0.7" d="M120.457 161.556H119.59V166.893H120.457V161.556Z" fill="white"/>
<path opacity="0.7" d="M118.789 161.556H117.922V166.893H118.789V161.556Z" fill="white"/>
<path opacity="0.7" d="M117.121 161.556H116.254V166.893H117.121V161.556Z" fill="white"/>
<path opacity="0.7" d="M115.453 161.556H114.586V166.893H115.453V161.556Z" fill="white"/>
<path opacity="0.7" d="M122.125 170.583H121.258V175.92H122.125V170.583Z" fill="white"/>
<path opacity="0.7" d="M120.457 170.583H119.59V175.92H120.457V170.583Z" fill="white"/>
<path opacity="0.7" d="M118.789 170.583H117.922V175.92H118.789V170.583Z" fill="white"/>
<path opacity="0.7" d="M117.121 170.583H116.254V175.92H117.121V170.583Z" fill="white"/>
<path opacity="0.7" d="M115.453 170.583H114.586V175.92H115.453V170.583Z" fill="white"/>
<path opacity="0.7" d="M122.125 179.61H121.258V184.952H122.125V179.61Z" fill="white"/>
<path opacity="0.7" d="M120.457 179.61H119.59V184.952H120.457V179.61Z" fill="white"/>
<path opacity="0.7" d="M118.789 179.61H117.922V184.952H118.789V179.61Z" fill="white"/>
<path opacity="0.7" d="M117.121 179.61H116.254V184.952H117.121V179.61Z" fill="white"/>
<path opacity="0.7" d="M115.453 179.61H114.586V184.952H115.453V179.61Z" fill="white"/>
<path opacity="0.7" d="M122.125 188.637H121.258V193.974H122.125V188.637Z" fill="white"/>
<path opacity="0.7" d="M120.457 188.637H119.59V193.974H120.457V188.637Z" fill="white"/>
<path opacity="0.7" d="M118.789 188.637H117.922V193.974H118.789V188.637Z" fill="white"/>
<path opacity="0.7" d="M117.121 188.637H116.254V193.974H117.121V188.637Z" fill="white"/>
<path opacity="0.7" d="M115.453 188.637H114.586V193.974H115.453V188.637Z" fill="white"/>
<path opacity="0.7" d="M122.125 197.657H121.258V203H122.125V197.657Z" fill="white"/>
<path opacity="0.7" d="M120.457 197.657H119.59V203H120.457V197.657Z" fill="white"/>
<path opacity="0.7" d="M118.789 197.657H117.922V203H118.789V197.657Z" fill="white"/>
<path opacity="0.7" d="M117.121 197.657H116.254V203H117.121V197.657Z" fill="white"/>
<path opacity="0.7" d="M115.453 197.657H114.586V203H115.453V197.657Z" fill="white"/>
<path opacity="0.2" d="M91.1229 155.198C91.1229 155.373 91.0711 155.545 90.974 155.691C90.8768 155.837 90.7387 155.951 90.5772 156.018C90.4157 156.085 90.2379 156.102 90.0664 156.068C89.8949 156.034 89.7374 155.949 89.6138 155.825C89.4902 155.701 89.406 155.543 89.3718 155.371C89.3377 155.199 89.3552 155.02 89.4221 154.858C89.4891 154.696 89.6024 154.557 89.7478 154.46C89.8931 154.362 90.0641 154.31 90.2389 154.31C90.4734 154.31 90.6982 154.404 90.864 154.57C91.0298 154.736 91.1229 154.962 91.1229 155.198Z" fill="white"/>
<path opacity="0.2" d="M96.6828 155.198C96.6828 155.373 96.6309 155.545 96.5338 155.691C96.4366 155.837 96.2986 155.951 96.137 156.018C95.9755 156.085 95.7977 156.102 95.6262 156.068C95.4548 156.034 95.2972 155.949 95.1736 155.825C95.05 155.701 94.9658 155.543 94.9317 155.371C94.8976 155.199 94.9151 155.02 94.982 154.858C95.0489 154.696 95.1622 154.557 95.3076 154.46C95.4529 154.362 95.6239 154.31 95.7987 154.31C96.0332 154.31 96.258 154.404 96.4238 154.57C96.5896 154.736 96.6828 154.962 96.6828 155.198Z" fill="white"/>
<path opacity="0.4" d="M102.243 155.198C102.243 155.373 102.191 155.545 102.094 155.691C101.997 155.837 101.859 155.951 101.697 156.018C101.536 156.085 101.358 156.102 101.186 156.068C101.015 156.034 100.857 155.949 100.734 155.825C100.61 155.701 100.526 155.543 100.492 155.371C100.458 155.199 100.475 155.02 100.542 154.858C100.609 154.696 100.722 154.557 100.868 154.46C101.013 154.362 101.184 154.31 101.359 154.31C101.593 154.31 101.818 154.404 101.984 154.57C102.15 154.736 102.243 154.962 102.243 155.198Z" fill="white"/>
<path opacity="0.4" d="M91.1229 164.225C91.1229 164.4 91.0711 164.572 90.974 164.718C90.8768 164.864 90.7387 164.977 90.5772 165.045C90.4157 165.112 90.2379 165.129 90.0664 165.095C89.8949 165.061 89.7374 164.976 89.6138 164.852C89.4902 164.728 89.406 164.57 89.3718 164.398C89.3377 164.226 89.3552 164.047 89.4221 163.885C89.4891 163.723 89.6024 163.584 89.7478 163.486C89.8931 163.389 90.0641 163.337 90.2389 163.337C90.4734 163.337 90.6982 163.43 90.864 163.597C91.0298 163.763 91.1229 163.989 91.1229 164.225Z" fill="white"/>
<path opacity="0.2" d="M96.6828 164.225C96.6828 164.4 96.6309 164.572 96.5338 164.718C96.4366 164.864 96.2986 164.977 96.137 165.045C95.9755 165.112 95.7977 165.129 95.6262 165.095C95.4548 165.061 95.2972 164.976 95.1736 164.852C95.05 164.728 94.9658 164.57 94.9317 164.398C94.8976 164.226 94.9151 164.047 94.982 163.885C95.0489 163.723 95.1622 163.584 95.3076 163.486C95.4529 163.389 95.6239 163.337 95.7987 163.337C96.0332 163.337 96.258 163.43 96.4238 163.597C96.5896 163.763 96.6828 163.989 96.6828 164.225Z" fill="white"/>
<path opacity="0.4" d="M102.243 164.225C102.243 164.4 102.191 164.572 102.094 164.718C101.997 164.864 101.859 164.977 101.697 165.045C101.536 165.112 101.358 165.129 101.186 165.095C101.015 165.061 100.857 164.976 100.734 164.852C100.61 164.728 100.526 164.57 100.492 164.398C100.458 164.226 100.475 164.047 100.542 163.885C100.609 163.723 100.722 163.584 100.868 163.486C101.013 163.389 101.184 163.337 101.359 163.337C101.593 163.337 101.818 163.43 101.984 163.597C102.15 163.763 102.243 163.989 102.243 164.225Z" fill="white"/>
<path opacity="0.2" d="M91.1229 173.251C91.1229 173.427 91.0711 173.599 90.974 173.745C90.8768 173.89 90.7387 174.004 90.5772 174.071C90.4157 174.139 90.2379 174.156 90.0664 174.122C89.8949 174.088 89.7374 174.003 89.6138 173.879C89.4902 173.755 89.406 173.597 89.3718 173.425C89.3377 173.252 89.3552 173.074 89.4221 172.912C89.4891 172.75 89.6024 172.611 89.7478 172.513C89.8931 172.416 90.0641 172.364 90.2389 172.364C90.4734 172.364 90.6982 172.457 90.864 172.624C91.0298 172.79 91.1229 173.016 91.1229 173.251Z" fill="white"/>
<path opacity="0.4" d="M96.6828 173.251C96.6828 173.427 96.6309 173.599 96.5338 173.745C96.4366 173.89 96.2986 174.004 96.137 174.071C95.9755 174.139 95.7977 174.156 95.6262 174.122C95.4548 174.088 95.2972 174.003 95.1736 173.879C95.05 173.755 94.9658 173.597 94.9317 173.425C94.8976 173.252 94.9151 173.074 94.982 172.912C95.0489 172.75 95.1622 172.611 95.3076 172.513C95.4529 172.416 95.6239 172.364 95.7987 172.364C96.0332 172.364 96.258 172.457 96.4238 172.624C96.5896 172.79 96.6828 173.016 96.6828 173.251Z" fill="white"/>
<path opacity="0.2" d="M102.243 173.251C102.243 173.427 102.191 173.599 102.094 173.745C101.997 173.89 101.859 174.004 101.697 174.071C101.536 174.139 101.358 174.156 101.186 174.122C101.015 174.088 100.857 174.003 100.734 173.879C100.61 173.755 100.526 173.597 100.492 173.425C100.458 173.252 100.475 173.074 100.542 172.912C100.609 172.75 100.722 172.611 100.868 172.513C101.013 172.416 101.184 172.364 101.359 172.364C101.593 172.364 101.818 172.457 101.984 172.624C102.15 172.79 102.243 173.016 102.243 173.251Z" fill="white"/>
<path opacity="0.4" d="M91.1229 182.278C91.1229 182.454 91.0711 182.625 90.974 182.771C90.8768 182.917 90.7387 183.031 90.5772 183.098C90.4157 183.165 90.2379 183.183 90.0664 183.149C89.8949 183.115 89.7374 183.03 89.6138 182.906C89.4902 182.782 89.406 182.624 89.3718 182.451C89.3377 182.279 89.3552 182.101 89.4221 181.939C89.4891 181.776 89.6024 181.638 89.7478 181.54C89.8931 181.443 90.0641 181.391 90.2389 181.391C90.4734 181.391 90.6982 181.484 90.864 181.651C91.0298 181.817 91.1229 182.043 91.1229 182.278Z" fill="white"/>
<path opacity="0.2" d="M96.6828 182.278C96.6828 182.454 96.6309 182.625 96.5338 182.771C96.4366 182.917 96.2986 183.031 96.137 183.098C95.9755 183.165 95.7977 183.183 95.6262 183.149C95.4548 183.115 95.2972 183.03 95.1736 182.906C95.05 182.782 94.9658 182.624 94.9317 182.451C94.8976 182.279 94.9151 182.101 94.982 181.939C95.0489 181.776 95.1622 181.638 95.3076 181.54C95.4529 181.443 95.6239 181.391 95.7987 181.391C96.0332 181.391 96.258 181.484 96.4238 181.651C96.5896 181.817 96.6828 182.043 96.6828 182.278Z" fill="white"/>
<path opacity="0.2" d="M102.243 182.278C102.243 182.454 102.191 182.625 102.094 182.771C101.997 182.917 101.859 183.031 101.697 183.098C101.536 183.165 101.358 183.183 101.186 183.149C101.015 183.115 100.857 183.03 100.734 182.906C100.61 182.782 100.526 182.624 100.492 182.451C100.458 182.279 100.475 182.101 100.542 181.939C100.609 181.776 100.722 181.638 100.868 181.54C101.013 181.443 101.184 181.391 101.359 181.391C101.593 181.391 101.818 181.484 101.984 181.651C102.15 181.817 102.243 182.043 102.243 182.278Z" fill="white"/>
<path opacity="0.2" d="M91.1229 191.305C91.1229 191.481 91.0711 191.652 90.974 191.798C90.8768 191.944 90.7387 192.058 90.5772 192.125C90.4157 192.192 90.2379 192.21 90.0664 192.176C89.8949 192.141 89.7374 192.057 89.6138 191.933C89.4902 191.809 89.406 191.65 89.3718 191.478C89.3377 191.306 89.3552 191.128 89.4221 190.965C89.4891 190.803 89.6024 190.665 89.7478 190.567C89.8931 190.47 90.0641 190.417 90.2389 190.417C90.4734 190.417 90.6982 190.511 90.864 190.677C91.0298 190.844 91.1229 191.07 91.1229 191.305Z" fill="white"/>
<path opacity="0.4" d="M96.6828 191.305C96.6828 191.481 96.6309 191.652 96.5338 191.798C96.4366 191.944 96.2986 192.058 96.137 192.125C95.9755 192.192 95.7977 192.21 95.6262 192.176C95.4548 192.141 95.2972 192.057 95.1736 191.933C95.05 191.809 94.9658 191.65 94.9317 191.478C94.8976 191.306 94.9151 191.128 94.982 190.965C95.0489 190.803 95.1622 190.665 95.3076 190.567C95.4529 190.47 95.6239 190.417 95.7987 190.417C96.0332 190.417 96.258 190.511 96.4238 190.677C96.5896 190.844 96.6828 191.07 96.6828 191.305Z" fill="white"/>
<path opacity="0.4" d="M102.243 191.305C102.243 191.481 102.191 191.652 102.094 191.798C101.997 191.944 101.859 192.058 101.697 192.125C101.536 192.192 101.358 192.21 101.186 192.176C101.015 192.141 100.857 192.057 100.734 191.933C100.61 191.809 100.526 191.65 100.492 191.478C100.458 191.306 100.475 191.128 100.542 190.965C100.609 190.803 100.722 190.665 100.868 190.567C101.013 190.47 101.184 190.417 101.359 190.417C101.593 190.417 101.818 190.511 101.984 190.677C102.15 190.844 102.243 191.07 102.243 191.305Z" fill="white"/>
<path opacity="0.4" d="M91.1229 200.332C91.1229 200.507 91.0711 200.679 90.974 200.825C90.8768 200.971 90.7387 201.085 90.5772 201.152C90.4157 201.219 90.2379 201.237 90.0664 201.203C89.8949 201.168 89.7374 201.084 89.6138 200.96C89.4902 200.835 89.406 200.677 89.3718 200.505C89.3377 200.333 89.3552 200.154 89.4221 199.992C89.4891 199.83 89.6024 199.691 89.7478 199.594C89.8931 199.496 90.0641 199.444 90.2389 199.444C90.4734 199.444 90.6982 199.538 90.864 199.704C91.0298 199.871 91.1229 200.097 91.1229 200.332Z" fill="white"/>
<path opacity="0.2" d="M96.6828 200.332C96.6828 200.507 96.6309 200.679 96.5338 200.825C96.4366 200.971 96.2986 201.085 96.137 201.152C95.9755 201.219 95.7977 201.237 95.6262 201.203C95.4548 201.168 95.2972 201.084 95.1736 200.96C95.05 200.835 94.9658 200.677 94.9317 200.505C94.8976 200.333 94.9151 200.154 94.982 199.992C95.0489 199.83 95.1622 199.691 95.3076 199.594C95.4529 199.496 95.6239 199.444 95.7987 199.444C96.0332 199.444 96.258 199.538 96.4238 199.704C96.5896 199.871 96.6828 200.097 96.6828 200.332Z" fill="white"/>
<path opacity="0.4" d="M102.243 200.332C102.243 200.507 102.191 200.679 102.094 200.825C101.997 200.971 101.859 201.085 101.697 201.152C101.536 201.219 101.358 201.237 101.186 201.203C101.015 201.168 100.857 201.084 100.734 200.96C100.61 200.835 100.526 200.677 100.492 200.505C100.458 200.333 100.475 200.154 100.542 199.992C100.609 199.83 100.722 199.691 100.868 199.594C101.013 199.496 101.184 199.444 101.359 199.444C101.593 199.444 101.818 199.538 101.984 199.704C102.15 199.871 102.243 200.097 102.243 200.332Z" fill="white"/>
<path d="M214.9 97.2124H213.788V148.359H214.9V97.2124Z" fill="#00A3FF"/>
<path opacity="0.7" d="M181.996 178.314H175.768V177.198H181.996V178.314ZM169.096 178.314H162.424V177.198H169.096V178.314ZM155.752 178.314H149.08V177.198H155.752V178.314ZM142.408 178.314H135.736V177.198H142.408V178.314Z" fill="#00A3FF"/>
<path d="M196.085 146.534L188.061 186.047C187.973 186.479 188 186.927 188.139 187.346C188.278 187.765 188.525 188.139 188.854 188.432C189.183 188.725 189.584 188.925 190.014 189.013C190.445 189.101 190.892 189.073 191.309 188.933L229.4 176.149C229.817 176.01 230.19 175.764 230.482 175.434C230.774 175.104 230.974 174.703 231.062 174.271C231.15 173.839 231.123 173.391 230.983 172.973C230.844 172.555 230.597 172.181 230.267 171.889L200.199 145.155C199.87 144.862 199.47 144.66 199.039 144.572C198.608 144.483 198.162 144.51 197.745 144.65C197.327 144.79 196.954 145.037 196.663 145.368C196.371 145.699 196.172 146.101 196.085 146.534Z" fill="#00A3FF"/>
<path d="M192.782 182.641L199.104 151.519C199.141 151.345 199.224 151.184 199.342 151.052C199.461 150.919 199.611 150.82 199.78 150.764C199.948 150.707 200.128 150.696 200.302 150.73C200.475 150.765 200.637 150.844 200.772 150.961L224.452 172.012C224.586 172.131 224.686 172.284 224.743 172.454C224.8 172.625 224.811 172.807 224.775 172.984C224.739 173.16 224.657 173.323 224.538 173.457C224.418 173.592 224.266 173.692 224.096 173.748L194.1 183.797C193.932 183.852 193.753 183.862 193.58 183.827C193.407 183.792 193.246 183.712 193.113 183.595C192.98 183.479 192.88 183.33 192.822 183.162C192.764 182.995 192.75 182.815 192.782 182.641Z" fill="white"/>
<path d="M200.432 160.819L201.305 163.448L201.355 163.571L204.324 169.835C204.444 170.072 204.644 170.259 204.889 170.361C205.134 170.463 205.407 170.475 205.659 170.393L206.821 170.002C207.071 169.913 207.281 169.738 207.413 169.508C207.546 169.278 207.592 169.008 207.544 168.746L206.187 161.941L206.154 161.813L205.275 159.183C205.179 158.911 204.982 158.687 204.725 158.558C204.467 158.429 204.171 158.405 203.896 158.491L201.116 159.418C200.843 159.515 200.618 159.717 200.49 159.978C200.362 160.24 200.342 160.542 200.432 160.819Z" fill="#263238"/>
<path d="M209.256 172.994C209.379 173.365 209.39 173.764 209.287 174.141C209.184 174.518 208.972 174.856 208.678 175.112C208.384 175.368 208.021 175.53 207.635 175.579C207.248 175.628 206.857 175.561 206.508 175.386C206.16 175.211 205.872 174.937 205.679 174.597C205.486 174.258 205.398 173.868 205.425 173.479C205.453 173.089 205.595 172.716 205.833 172.407C206.072 172.098 206.396 171.868 206.765 171.744C207.011 171.661 207.27 171.627 207.528 171.645C207.786 171.663 208.038 171.732 208.27 171.849C208.501 171.965 208.708 172.126 208.877 172.323C209.046 172.519 209.175 172.747 209.256 172.994Z" fill="#263238"/>
<path d="M97.592 91.3501C96.8994 90.8699 96.0833 90.601 95.242 90.5757C94.4007 90.5504 93.57 90.7699 92.8501 91.2077C92.1302 91.6455 91.5517 92.283 91.1843 93.0433C90.8168 93.8036 90.6762 94.6543 90.7793 95.4931C90.8881 96.364 91.2533 97.2384 91.0321 98.0881C90.6142 99.6748 88.3843 100.295 88.0893 101.91C87.9734 102.548 88.1982 103.19 88.3702 103.814C88.5423 104.438 88.6477 105.143 88.3246 105.704C88.0893 106.12 87.6574 106.381 87.3202 106.719C86.2316 107.809 86.2667 109.72 87.1622 110.951C88.0577 112.181 89.6836 112.791 91.2182 112.742C92.7586 112.629 94.2439 112.119 95.5306 111.261" fill="#263238"/>
<path d="M96.1592 91.8862C96.4115 91.1517 96.8482 90.4949 97.427 89.9792C98.0059 89.4635 98.7073 89.1063 99.4637 88.9421C100.963 88.5895 102.824 88.0888 104.197 88.7905C105.054 89.2312 105.876 89.8694 106.213 90.7755C106.614 91.8333 105.999 93.8501 105.69 94.9572C105.381 96.0644 105.153 97.3196 105.76 98.2927C106.368 99.2659 107.551 99.6044 108.296 100.433C108.79 101.027 109.035 101.792 108.977 102.564C108.919 103.336 108.564 104.055 107.987 104.569C109.314 104.491 110.445 105.849 110.385 107.181C110.325 108.514 109.37 109.685 108.187 110.288C107.003 110.891 105.634 111.018 104.306 111.021C102.654 111.025 101.006 110.854 99.39 110.51C98.0625 110.228 96.6789 109.78 95.815 108.729C95.0214 107.763 94.8002 106.445 94.8002 105.203C94.8002 100.771 97.1074 96.3888 96.103 92.066" fill="#263238"/>
<path d="M104.082 124.758L105.785 130.11C106.109 131.202 106.726 132.182 107.569 132.944C108.413 133.705 109.449 134.218 110.564 134.426L121.939 136.542L125.033 136.443L121.939 132.607L113.391 129.68C112.981 129.591 112.603 129.391 112.299 129.101C111.994 128.811 111.775 128.443 111.663 128.037L108.243 120.601L103.934 123.256L104.082 124.758Z" fill="#B78876"/>
<path d="M87.3133 119.522C87.4713 120.35 89.8768 126.38 89.8768 126.38C89.8768 126.38 99.239 123.206 99.1161 122.723C99.0143 122.346 97.2163 116.31 95.0601 112.967C94.6545 112.322 94.1041 111.78 93.4528 111.387C92.8016 110.993 92.0676 110.758 91.3096 110.7C90.8882 110.672 89.9752 111.113 89.7258 111.254C87.7558 112.371 86.0807 113.122 87.3133 119.522Z" fill="#455A64"/>
<path d="M100.517 107.841C104.752 108.317 105.434 111.205 107.414 114.05L110.269 119.339L105.002 122.572L105.184 130.682L107.685 138.439L87.9312 136.573L89.7538 129.931L87.1235 119.501C86.9234 118.091 86.3791 115.436 86.7478 114.039C87.8961 109.671 92.4227 108.398 95.527 107.58C96.1697 107.414 99.267 107.425 99.8043 107.555" fill="#00A3FF"/>
<path d="M87.4854 119.438L87.5275 119.551C87.5521 119.632 87.5907 119.744 87.6364 119.886C87.7312 120.185 87.8681 120.615 88.0402 121.165C88.3914 122.28 88.8795 123.87 89.48 125.798L89.4133 125.767L98.1925 122.509L98.4103 122.417L98.3751 122.491C97.8423 120.505 97.153 118.564 96.3138 116.688C95.6642 115.143 94.7831 113.708 93.7011 112.432C93.278 111.951 92.7784 111.545 92.2226 111.229C91.8054 110.988 91.3373 110.849 90.8566 110.824C90.7642 110.819 90.6716 110.819 90.5792 110.824L90.3333 110.849L90.1261 110.873L89.9576 110.919L89.7258 110.979L89.645 110.997C89.6687 110.982 89.695 110.973 89.7223 110.969L89.9506 110.894L90.1191 110.845C90.1886 110.83 90.259 110.819 90.3298 110.813L90.5756 110.782C90.6703 110.775 90.7654 110.775 90.8601 110.782C91.353 110.799 91.8345 110.935 92.2648 111.177C92.8303 111.49 93.3396 111.896 93.7713 112.379C94.8713 113.654 95.767 115.093 96.4261 116.645C97.2738 118.526 97.9679 120.473 98.5016 122.466V122.519L98.4524 122.541L98.2312 122.632C94.9372 123.87 91.882 124.97 89.4273 125.869L89.3782 125.89V125.837C88.7987 123.901 88.3246 122.311 87.9735 121.19C87.8084 120.637 87.682 120.203 87.5942 119.9C87.5521 119.759 87.5205 119.646 87.4959 119.547C87.4898 119.511 87.4863 119.474 87.4854 119.438Z" fill="#263238"/>
<path d="M98.0592 121.292C98.0592 121.324 96.0399 122.029 93.5255 122.864C91.0112 123.7 88.9603 124.352 88.9603 124.317C88.9603 124.282 90.9796 123.58 93.4975 122.745C96.0153 121.909 98.0381 121.257 98.0592 121.292Z" fill="#263238"/>
<g opacity="0.3">
<path d="M89.9086 125.653C90.2897 127.38 90.7836 129.079 91.387 130.741C91.7649 131.798 92.3026 132.789 92.9813 133.682C93.9848 134.844 95.3239 135.663 96.8126 136.026C98.2929 136.386 99.8275 136.461 101.336 136.248L93.8171 131.982L91.8154 125.004L89.9086 125.653Z" fill="black"/>
</g>
<path d="M90.7723 125.259L92.6265 131.352C92.947 132.449 93.5627 133.436 94.406 134.204C95.2493 134.972 96.2874 135.492 97.406 135.706L108.78 137.875L111.874 137.776L108.78 133.88L100.229 130.918C99.8173 130.825 99.4386 130.621 99.1345 130.327C98.8304 130.032 98.6127 129.66 98.5051 129.25L96.9213 123.119L90.7723 125.259Z" fill="#B78876"/>
<path d="M105.202 130.47C105.172 130.28 105.154 130.088 105.149 129.896C105.132 129.49 105.104 128.961 105.072 128.32C105.016 126.99 104.953 125.146 104.889 123.126C104.826 121.106 104.784 119.247 104.759 117.929C104.759 117.287 104.759 116.758 104.742 116.353C104.734 116.16 104.74 115.966 104.759 115.774C104.794 115.964 104.812 116.156 104.812 116.349C104.833 116.755 104.858 117.283 104.889 117.925C104.946 119.254 105.012 121.099 105.072 123.119C105.132 125.139 105.181 126.997 105.202 128.316C105.202 128.958 105.202 129.49 105.223 129.892C105.234 130.085 105.227 130.279 105.202 130.47Z" fill="#263238"/>
<g opacity="0.3">
<path d="M103.948 125.259C104.155 125.393 103.622 126.589 102.515 127.727C101.409 128.866 100.236 129.43 100.099 129.222C99.9624 129.014 100.83 128.165 101.855 127.086C102.881 126.007 103.73 125.122 103.948 125.259Z" fill="black"/>
</g>
<path d="M109.507 117.932C108.801 118.452 108.061 118.923 107.291 119.343C106.552 119.815 105.779 120.235 104.981 120.598C106.426 119.603 107.938 118.711 109.507 117.929V117.932Z" fill="#263238"/>
<path d="M96.9143 118.292C96.9143 118.309 96.7739 118.27 96.5315 118.292C96.1859 118.324 95.8544 118.445 95.5693 118.644C95.1435 118.94 94.7575 119.289 94.421 119.684C94.0024 120.197 93.4451 120.578 92.8162 120.781C92.1138 120.939 91.4466 120.693 90.8882 120.534C90.4086 120.35 89.8916 120.286 89.3817 120.347C89.0433 120.406 88.7376 120.587 88.5213 120.855C88.4514 120.961 88.3904 121.073 88.3387 121.19C88.3387 121.19 88.3387 121.151 88.3387 121.084C88.3643 120.988 88.4046 120.896 88.4581 120.813C88.6679 120.508 88.9858 120.296 89.3466 120.22C89.8785 120.135 90.4232 120.186 90.9304 120.368C91.4923 120.523 92.1279 120.749 92.767 120.604C93.3624 120.407 93.8913 120.047 94.2946 119.564C94.6465 119.167 95.0506 118.82 95.4956 118.531C95.8034 118.335 96.16 118.23 96.5245 118.228C96.6218 118.228 96.7187 118.241 96.8125 118.267C96.8827 118.274 96.9178 118.284 96.9143 118.292Z" fill="#FAFAFA"/>
<path d="M105.083 116.994C104.968 116.962 104.85 116.942 104.731 116.935C104.411 116.958 104.105 117.081 103.857 117.287C103.688 117.403 103.506 117.552 103.302 117.689C103.075 117.84 102.817 117.938 102.547 117.975C101.932 118.026 101.316 117.904 100.767 117.622C100.242 117.343 99.7018 117.095 99.1478 116.882C98.7024 116.716 98.2152 116.701 97.7606 116.839C97.4521 116.929 97.1809 117.117 96.9881 117.375C96.8617 117.559 96.83 117.689 96.8125 117.686C96.7949 117.682 96.8125 117.65 96.8125 117.59C96.8345 117.501 96.8701 117.415 96.9178 117.336C97.1004 117.044 97.3803 116.825 97.708 116.719C98.1877 116.551 98.7101 116.551 99.1899 116.719C99.7543 116.926 100.304 117.172 100.833 117.456C101.351 117.724 101.931 117.846 102.512 117.809C102.979 117.711 103.413 117.493 103.773 117.178C104.045 116.971 104.379 116.862 104.721 116.868C104.814 116.872 104.905 116.898 104.988 116.942C105.044 116.966 105.083 116.987 105.083 116.994Z" fill="#FAFAFA"/>
<path d="M104.626 118.757C104.849 118.7 105.064 118.619 105.269 118.514C105.727 118.193 106.121 117.789 106.431 117.322C106.76 116.834 107.222 116.45 107.762 116.218C107.873 116.172 107.993 116.148 108.113 116.148C108.234 116.148 108.353 116.172 108.464 116.218C108.236 116.226 108.01 116.267 107.794 116.342C107.298 116.598 106.874 116.975 106.561 117.438C106.24 117.924 105.815 118.333 105.318 118.634C105.11 118.758 104.864 118.802 104.626 118.757Z" fill="#FAFAFA"/>
<path d="M135.943 177.541L135.887 173.952L129.19 174.015L129.219 179.269L129.633 179.29C131.484 179.374 139.041 179.597 140.273 179.209C141.646 178.775 135.943 177.541 135.943 177.541Z" fill="#00A3FF"/>
<g opacity="0.4">
<path d="M138.732 178.246C138.732 178.246 140.73 178.803 140.487 179.135C140.245 179.466 132.597 179.533 129.222 179.269V179.117H138.142C138.142 179.117 138.342 178.264 138.732 178.246Z" fill="white"/>
</g>
<path d="M129.12 179.113H129.236L129.566 179.13L130.785 179.173C131.814 179.201 133.243 179.222 134.806 179.208C136.368 179.194 137.798 179.155 138.823 179.109L140.041 179.049L140.372 179.024C140.41 179.03 140.449 179.03 140.487 179.024H140.372H140.02L138.805 179.06C137.776 179.088 136.347 179.123 134.788 179.134C133.229 179.144 131.796 179.134 130.771 179.134H129.552H129.103L129.12 179.113Z" fill="#263238"/>
<path d="M138.145 179.206C138.197 179.003 138.272 178.807 138.367 178.62C138.485 178.448 138.623 178.291 138.777 178.151C138.571 178.229 138.401 178.381 138.3 178.578C138.174 178.761 138.119 178.984 138.145 179.206Z" fill="#263238"/>
<path d="M136.161 178.231C136.161 178.231 136.273 178.126 136.368 177.97C136.463 177.815 136.53 177.678 136.509 177.667C136.488 177.657 136.396 177.773 136.301 177.928C136.207 178.083 136.143 178.217 136.161 178.231Z" fill="#263238"/>
<path d="M135.634 177.946C135.634 177.964 135.754 177.893 135.87 177.788C135.985 177.682 136.063 177.583 136.049 177.566C136.035 177.548 135.929 177.622 135.813 177.728C135.698 177.834 135.603 177.932 135.634 177.946Z" fill="#263238"/>
<path d="M135.283 177.315C135.283 177.339 135.438 177.357 135.634 177.357C135.753 177.369 135.873 177.356 135.986 177.318C135.874 177.277 135.753 177.262 135.634 177.276C135.516 177.263 135.396 177.276 135.283 177.315Z" fill="#263238"/>
<path d="M135.146 176.871C135.268 176.934 135.401 176.971 135.538 176.98C135.674 176.989 135.811 176.97 135.94 176.923C135.675 176.908 135.411 176.891 135.146 176.871Z" fill="#263238"/>
<path d="M136.382 177.643C136.525 177.667 136.671 177.667 136.814 177.643C136.969 177.622 137.122 177.587 137.271 177.537C137.361 177.511 137.448 177.474 137.531 177.428C137.582 177.397 137.62 177.348 137.636 177.29C137.642 177.258 137.639 177.225 137.628 177.194C137.616 177.164 137.596 177.137 137.569 177.118C137.404 177.039 137.217 177.02 137.04 177.065C136.862 177.109 136.706 177.214 136.597 177.361C136.531 177.446 136.484 177.545 136.46 177.65C136.45 177.688 136.45 177.728 136.46 177.766C136.503 177.638 136.568 177.519 136.653 177.414C136.744 177.301 136.866 177.216 137.004 177.171C137.087 177.142 137.175 177.129 137.263 177.135C137.351 177.14 137.437 177.163 137.517 177.202C137.587 177.252 137.559 177.333 137.485 177.379C137.408 177.422 137.327 177.457 137.243 177.484C137.098 177.535 136.95 177.575 136.8 177.604C136.547 177.625 136.382 177.629 136.382 177.643Z" fill="#263238"/>
<path d="M136.495 177.665C136.547 177.573 136.564 177.465 136.54 177.362C136.527 177.249 136.486 177.141 136.421 177.048C136.385 176.985 136.334 176.932 136.273 176.894C136.211 176.856 136.142 176.834 136.07 176.829C136.026 176.839 135.988 176.866 135.963 176.903C135.939 176.94 135.929 176.986 135.936 177.03C135.948 177.099 135.975 177.165 136.014 177.224C136.071 177.319 136.139 177.407 136.217 177.485C136.285 177.562 136.371 177.621 136.467 177.658C136.467 177.658 136.379 177.58 136.259 177.443C136.189 177.364 136.128 177.277 136.077 177.185C136.017 177.094 135.975 176.931 136.077 176.91C136.179 176.889 136.294 177.005 136.361 177.094C136.422 177.176 136.464 177.271 136.484 177.372C136.497 177.469 136.5 177.567 136.495 177.665Z" fill="#263238"/>
<path d="M129.243 177.273C129.243 177.273 129.433 177.252 129.738 177.273C130.133 177.313 130.507 177.465 130.82 177.71C131.137 177.955 131.38 178.283 131.522 178.658C131.624 178.948 131.638 179.141 131.652 179.138C131.659 179.094 131.659 179.048 131.652 179.004C131.638 178.884 131.612 178.766 131.575 178.651C131.451 178.257 131.212 177.909 130.888 177.655C130.564 177.4 130.17 177.249 129.759 177.223C129.637 177.211 129.513 177.211 129.391 177.223C129.289 177.255 129.243 177.266 129.243 177.273Z" fill="#263238"/>
<path d="M129.914 174.47C129.868 174.928 129.852 175.388 129.865 175.848C129.852 176.309 129.864 176.771 129.9 177.23C129.945 176.771 129.962 176.31 129.949 175.848C129.962 175.389 129.95 174.928 129.914 174.47Z" fill="#263238"/>
<path d="M132.474 178.527C132.795 178.598 133.125 178.627 133.454 178.615C133.782 178.63 134.112 178.601 134.433 178.531C134.433 178.506 133.994 178.531 133.454 178.531C132.913 178.531 132.474 178.499 132.474 178.527Z" fill="#263238"/>
<path d="M131.171 178.539C131.171 178.556 131.206 178.63 131.252 178.733C131.297 178.835 131.322 178.919 131.347 178.919C131.371 178.919 131.378 178.814 131.326 178.697C131.273 178.581 131.185 178.521 131.171 178.539Z" fill="#263238"/>
<path d="M130.669 177.925C130.669 177.925 130.697 178.01 130.767 178.08C130.837 178.151 130.908 178.193 130.922 178.179C130.936 178.165 130.894 178.091 130.823 178.02C130.753 177.95 130.686 177.907 130.669 177.925Z" fill="#263238"/>
<path d="M129.959 177.646C129.959 177.671 130.054 177.668 130.153 177.703C130.251 177.738 130.321 177.787 130.339 177.773C130.356 177.759 130.3 177.664 130.177 177.625C130.054 177.586 129.952 177.629 129.959 177.646Z" fill="#263238"/>
<path d="M129.454 177.52C129.454 177.541 129.485 177.576 129.542 177.597C129.598 177.618 129.647 177.618 129.657 177.597C129.668 177.576 129.626 177.541 129.57 177.52C129.513 177.499 129.461 177.499 129.454 177.52Z" fill="#263238"/>
<g opacity="0.3">
<path d="M129.25 177.093L135.94 176.924L135.922 176.113L129.201 176.219L129.25 177.093Z" fill="black"/>
</g>
<path d="M108.78 138.741L128.347 139.094C129.864 139.123 131.318 139.701 132.443 140.723C133.568 141.744 134.287 143.139 134.468 144.651L138.349 176.313H127.722L124.474 148.966H109.044L108.78 138.741Z" fill="#263238"/>
<path d="M138.215 174.297C138.215 174.347 135.887 174.403 133.018 174.421C130.149 174.438 127.817 174.421 127.817 174.364C127.817 174.308 130.142 174.255 133.015 174.237C135.887 174.22 138.215 174.248 138.215 174.297Z" fill="#455A64"/>
<path d="M90.4351 149.087C82.6251 146.492 87.9558 135.992 87.9558 135.992L122.093 139.214C122.745 139.21 123.391 139.335 123.994 139.582C124.598 139.829 125.146 140.194 125.608 140.655C126.071 141.116 126.437 141.665 126.688 142.269C126.938 142.873 127.066 143.521 127.066 144.175C127.066 144.826 126.939 145.471 126.691 146.073C126.443 146.675 126.079 147.221 125.621 147.682C125.162 148.142 124.618 148.507 124.018 148.756C123.419 149.005 122.777 149.133 122.128 149.133L90.4351 149.087Z" fill="#263238"/>
<path d="M100.847 137.959L100.946 137.218L109.683 136.873L113.971 126.017L130.307 127.131L124.794 139.182L100.847 137.959Z" fill="#455A64"/>
<path d="M120.4 133.058C120.31 133.203 120.179 133.317 120.025 133.386C119.87 133.456 119.698 133.477 119.531 133.449C119.363 133.42 119.209 133.342 119.085 133.225C118.962 133.108 118.877 132.956 118.839 132.79C118.802 132.624 118.814 132.451 118.875 132.292C118.936 132.133 119.043 131.996 119.181 131.898C119.32 131.799 119.484 131.745 119.654 131.74C119.823 131.736 119.99 131.783 120.134 131.874C120.325 131.996 120.461 132.189 120.511 132.411C120.561 132.633 120.521 132.866 120.4 133.058Z" fill="white"/>
<path d="M97.5394 137.744C97.5731 137.738 97.6076 137.738 97.6413 137.744H97.9398L99.0811 137.79L103.295 137.988L117.145 138.693C117.82 138.725 118.49 138.781 119.147 138.788C119.804 138.795 120.457 138.823 121.096 138.862C121.735 138.901 122.364 138.943 122.975 139.007C123.582 139.046 124.182 139.165 124.759 139.359C125.31 139.555 125.816 139.862 126.244 140.262C126.642 140.648 126.95 141.118 127.147 141.637C127.32 142.117 127.437 142.615 127.498 143.121C127.564 143.588 127.597 144.06 127.596 144.532C127.609 145.345 127.448 146.152 127.126 146.898C126.873 147.457 126.493 147.95 126.016 148.336C125.714 148.577 125.371 148.761 125.004 148.879C124.877 148.92 124.745 148.946 124.611 148.957C124.611 148.957 124.748 148.928 124.994 148.844C125.35 148.715 125.68 148.524 125.97 148.28C126.423 147.896 126.784 147.414 127.024 146.869C127.331 146.134 127.479 145.343 127.459 144.546C127.456 144.083 127.42 143.621 127.35 143.164C127.289 142.669 127.171 142.182 126.999 141.715C126.811 141.217 126.515 140.767 126.132 140.399C125.717 140.019 125.229 139.726 124.699 139.539C124.132 139.345 123.541 139.226 122.943 139.186C122.336 139.127 121.71 139.084 121.071 139.049C120.432 139.014 119.786 138.989 119.129 138.978C118.473 138.968 117.802 138.915 117.124 138.883L103.274 138.108L99.06 137.85L97.9187 137.773L97.6237 137.748L97.5394 137.744Z" fill="#455A64"/>
<path d="M93.3639 92.5664L93.385 93.6242L93.5957 109.395C93.6202 111.229 97.3672 113.126 99.3197 113.084C101.29 113.041 100.587 110.936 100.724 109.205C100.826 107.879 100.843 106.549 100.774 105.221C100.774 105.221 103.263 104.805 103.78 101.54C104.036 99.9179 103.955 97.2558 103.818 95.0804C103.79 94.6163 103.668 94.1628 103.46 93.7473C103.252 93.3319 102.962 92.9629 102.608 92.6628C102.255 92.3627 101.844 92.1376 101.401 92.001C100.959 91.8645 100.493 91.8193 100.033 91.8683L93.3639 92.5664Z" fill="#B78876"/>
<path d="M102.976 97.1818C102.977 97.2913 102.935 97.3968 102.859 97.4759C102.784 97.5549 102.681 97.6012 102.572 97.6049C102.519 97.6092 102.465 97.6028 102.415 97.586C102.365 97.5693 102.318 97.5425 102.278 97.5073C102.238 97.4721 102.206 97.4293 102.182 97.3812C102.159 97.3332 102.146 97.2809 102.143 97.2276C102.142 97.1187 102.184 97.0137 102.258 96.9348C102.333 96.8558 102.435 96.8091 102.544 96.8045C102.597 96.8002 102.65 96.8066 102.701 96.8233C102.752 96.84 102.798 96.8668 102.839 96.9019C102.879 96.9371 102.912 96.9799 102.935 97.028C102.959 97.076 102.972 97.1283 102.976 97.1818Z" fill="#263238"/>
<path d="M103.26 96.4559C103.207 96.5088 102.891 96.2761 102.442 96.2761C101.992 96.2761 101.666 96.5017 101.616 96.4489C101.567 96.396 101.644 96.3255 101.788 96.2197C101.982 96.0847 102.213 96.0132 102.449 96.0152C102.682 96.0134 102.91 96.0876 103.098 96.2267C103.239 96.3466 103.284 96.4312 103.26 96.4559Z" fill="#263238"/>
<path d="M98.6033 97.1818C98.6052 97.291 98.5643 97.3965 98.4894 97.4756C98.4145 97.5548 98.3116 97.6012 98.203 97.6049C98.1497 97.6097 98.096 97.6037 98.0452 97.5872C97.9943 97.5706 97.9473 97.5439 97.9069 97.5087C97.8666 97.4735 97.8337 97.4304 97.8104 97.3821C97.787 97.3338 97.7736 97.2813 97.771 97.2276C97.77 97.1187 97.8112 97.0137 97.8859 96.9348C97.9606 96.8558 98.063 96.8091 98.1714 96.8045C98.2245 96.8002 98.278 96.8066 98.3287 96.8233C98.3793 96.84 98.4262 96.8668 98.4664 96.9019C98.5066 96.9371 98.5395 96.9799 98.563 97.028C98.5865 97.076 98.6002 97.1283 98.6033 97.1818Z" fill="#263238"/>
<path d="M98.8492 96.5404C98.7965 96.5933 98.4805 96.3606 98.031 96.3606C97.5815 96.3606 97.2549 96.5862 97.2057 96.5334C97.1566 96.4805 97.2338 96.4099 97.3778 96.3042C97.5726 96.1687 97.8045 96.0972 98.0415 96.0997C98.275 96.0989 98.5026 96.173 98.6912 96.3112C98.8281 96.417 98.8738 96.5157 98.8492 96.5404Z" fill="#263238"/>
<path d="M100.479 99.872C100.715 99.7978 100.959 99.7539 101.206 99.7415C101.321 99.7415 101.43 99.7063 101.448 99.6287C101.461 99.5059 101.433 99.3823 101.371 99.2761C101.265 98.9976 101.149 98.7049 101.019 98.3982C100.706 97.6568 100.451 96.8917 100.257 96.1099C100.632 96.8246 100.948 97.5686 101.202 98.3347L101.525 99.2126C101.597 99.3514 101.618 99.5112 101.585 99.664C101.568 99.7047 101.542 99.7411 101.509 99.7704C101.477 99.7997 101.438 99.8212 101.395 99.8332C101.332 99.8516 101.267 99.8611 101.202 99.8614C100.962 99.8952 100.719 99.8987 100.479 99.872Z" fill="#263238"/>
<path d="M100.788 105.21C99.2565 105.233 97.7491 104.829 96.4331 104.043C96.4331 104.043 97.4866 106.285 100.742 105.979L100.788 105.21Z" fill="#AA6550"/>
<path d="M100.289 100.965C100.204 100.857 100.092 100.773 99.9646 100.72C99.8373 100.668 99.6988 100.649 99.5622 100.666C99.4634 100.674 99.3672 100.702 99.2796 100.748C99.1921 100.795 99.1149 100.859 99.053 100.937C98.9924 101.012 98.9565 101.105 98.9502 101.201C98.9439 101.298 98.9676 101.394 99.0179 101.477C99.0901 101.557 99.1844 101.613 99.2887 101.64C99.3931 101.666 99.5029 101.661 99.6043 101.625C99.818 101.547 100.014 101.427 100.18 101.272C100.229 101.235 100.272 101.189 100.307 101.138C100.324 101.113 100.333 101.084 100.333 101.053C100.333 101.023 100.324 100.994 100.307 100.969" fill="#AA6550"/>
<path d="M99.1582 100.19C99.2284 100.19 99.232 100.677 99.6463 101.022C100.061 101.368 100.584 101.318 100.587 101.375C100.591 101.431 100.472 101.47 100.236 101.477C99.9513 101.48 99.6743 101.382 99.4532 101.202C99.2395 101.026 99.1033 100.773 99.0739 100.497C99.0704 100.31 99.1126 100.19 99.1582 100.19Z" fill="#263238"/>
<path d="M96.0083 91.0579C96.0083 91.0192 96.061 90.998 96.0891 91.0086C96.1172 91.0192 96.1242 91.0615 96.1102 91.1002C96.0961 91.139 96.0575 91.1602 96.0294 91.1496C96.0146 91.1402 96.0041 91.1253 96.0001 91.1081C95.9962 91.091 95.9991 91.0729 96.0083 91.0579Z" fill="#263238"/>
<path d="M93.1953 108.01C93.6722 107.827 94.1045 107.544 94.4626 107.179C94.8207 106.814 95.0963 106.376 95.2707 105.894C95.6114 104.925 95.636 103.871 95.3409 102.887C95.211 102.432 95.0284 101.935 95.2286 101.508C95.4124 101.22 95.6511 100.97 95.9309 100.775C96.4893 100.233 96.8198 99.4976 96.8545 98.719C96.8823 97.9443 96.7409 97.1728 96.4401 96.4589C96.2856 96.064 96.0889 95.6338 96.2399 95.2319C96.3701 94.9552 96.5639 94.7135 96.8053 94.5267C97.2687 94.0925 97.6515 93.5792 97.9361 93.0106C98.056 92.82 98.1322 92.6049 98.1589 92.3811C98.1856 92.1572 98.1623 91.9302 98.0906 91.7166C97.8553 91.2265 97.2408 91.0713 96.6859 91.0325C95.4006 90.9338 93.9784 91.2194 93.1742 92.2208C92.4403 93.1163 92.356 94.368 92.3033 95.528C92.1418 99.1844 91.9802 102.876 92.6088 106.483" fill="#263238"/>
<path d="M105.082 92.203C104.904 92.3151 104.718 92.4163 104.528 92.5062C104.361 92.6302 104.203 92.767 104.057 92.9152C103.976 92.9963 103.885 93.088 103.804 93.1796C103.78 93.2043 103.769 93.229 103.745 93.2537L103.653 93.3453L103.425 93.5604C103.206 93.7624 102.971 93.9464 102.723 94.1105C102.355 94.3596 101.946 94.54 101.515 94.6429C100.685 94.8233 99.8182 94.7165 99.0564 94.3396C98.5281 94.0845 98.0645 93.7119 97.7009 93.2501C97.1496 92.5097 97.0618 91.9103 97.3181 91.5824C97.5745 91.2545 98.2136 91.3039 98.93 91.4801C99.2767 91.5713 99.6285 91.6419 99.9835 91.6917C100.265 91.7331 100.551 91.7259 100.83 91.6705C100.965 91.6373 101.097 91.59 101.223 91.5295C101.406 91.4484 101.634 91.325 101.894 91.2016C102.027 91.1381 102.164 91.0747 102.315 91.0183L102.54 90.9372C102.621 90.909 102.712 90.8772 102.796 90.8561C103.115 90.7758 103.445 90.7496 103.773 90.7785C104.032 90.7902 104.286 90.8595 104.515 90.9814C104.745 91.1033 104.944 91.2749 105.1 91.4837C105.3 91.8151 105.219 92.0725 105.082 92.203Z" fill="#263238"/>
<path d="M98.9652 94.7745C98.9195 94.898 98.4735 94.838 97.9468 94.9015C97.42 94.9649 96.9951 95.1095 96.9249 95.0002C96.8933 94.9473 96.967 94.8345 97.1391 94.7146C97.3667 94.5652 97.6269 94.4732 97.8976 94.4466C98.1671 94.4161 98.4399 94.4487 98.6948 94.5418C98.8879 94.6194 98.9827 94.7181 98.9652 94.7745Z" fill="#263238"/>
<path d="M103.095 95.1516C103.014 95.2539 102.705 95.1516 102.333 95.1516C101.961 95.1516 101.648 95.2186 101.574 95.1128C101.543 95.0599 101.592 94.9577 101.732 94.859C101.917 94.7441 102.132 94.6865 102.349 94.6934C102.567 94.7003 102.777 94.7714 102.954 94.8978C103.084 94.9965 103.13 95.1023 103.095 95.1516Z" fill="#263238"/>
</svg>
