<svg width="25" height="25" viewBox="0 0 25 25" fill="none" xmlns="http://www.w3.org/2000/svg">
<g id="Frame">
<path id="Vector" d="M12.6666 22.3335C11.2833 22.3335 9.98329 22.0708 8.76663 21.5455C7.54996 21.0202 6.49163 20.3078 5.59163 19.4085C4.69163 18.5092 3.97929 17.4508 3.45463 16.2335C2.92996 15.0162 2.66729 13.7162 2.66663 12.3335H4.66663C4.66663 13.4335 4.87496 14.4712 5.29163 15.4465C5.70829 16.4218 6.27929 17.2718 7.00463 17.9965C7.72996 18.7212 8.57996 19.2962 9.55463 19.7215C10.5293 20.1468 11.5666 20.3592 12.6666 20.3585C14.9 20.3585 16.7916 19.5835 18.3416 18.0335C19.8916 16.4835 20.6666 14.5918 20.6666 12.3585C20.6666 10.1252 19.8916 8.2335 18.3416 6.6835C16.7916 5.1335 14.9 4.3585 12.6666 4.3585C11.1833 4.3585 9.83729 4.72116 8.62863 5.4465C7.41996 6.17183 6.46596 7.13416 5.76663 8.3335H8.66663V10.3335H2.66663V4.3335H4.66663V6.3335C5.58329 5.11683 6.73329 4.14616 8.11663 3.4215C9.49996 2.69683 11.0166 2.33416 12.6666 2.3335C14.05 2.3335 15.35 2.59616 16.5666 3.1215C17.7833 3.64683 18.8416 4.35916 19.7416 5.2585C20.6416 6.15783 21.3543 7.21616 21.8796 8.4335C22.405 9.65083 22.6673 10.9508 22.6666 12.3335C22.666 13.7162 22.4033 15.0162 21.8786 16.2335C21.354 17.4508 20.6416 18.5092 19.7416 19.4085C18.8416 20.3078 17.7833 21.0205 16.5666 21.5465C15.35 22.0725 14.05 22.3348 12.6666 22.3335ZM10.6666 16.3335C10.3833 16.3335 10.146 16.2375 9.95463 16.0455C9.76329 15.8535 9.66729 15.6162 9.66663 15.3335V12.3335C9.66663 12.0502 9.76263 11.8128 9.95463 11.6215C10.1466 11.4302 10.384 11.3342 10.6666 11.3335V10.3335C10.6666 9.7835 10.8626 9.31283 11.2546 8.9215C11.6466 8.53016 12.1173 8.33416 12.6666 8.3335C13.216 8.33283 13.687 8.52883 14.0796 8.9215C14.4723 9.31416 14.668 9.78483 14.6666 10.3335V11.3335C14.95 11.3335 15.1876 11.4295 15.3796 11.6215C15.5716 11.8135 15.6673 12.0508 15.6666 12.3335V15.3335C15.6666 15.6168 15.5706 15.8545 15.3786 16.0465C15.1866 16.2385 14.9493 16.3342 14.6666 16.3335H10.6666ZM11.6666 11.3335H13.6666V10.3335C13.6666 10.0502 13.5706 9.81283 13.3786 9.6215C13.1866 9.43016 12.9493 9.33416 12.6666 9.3335C12.384 9.33283 12.1466 9.42883 11.9546 9.6215C11.7626 9.81416 11.6666 10.0515 11.6666 10.3335V11.3335Z" fill="#667085"/>
</g>
</svg>
