<svg width="146" height="38" viewBox="0 0 146 38" fill="none" xmlns="http://www.w3.org/2000/svg">
<g filter="url(#filter0_dd_2119_1864)">
<path d="M33.443 2H4.55699C3.69709 2 3 2.69709 3 3.55699V32.443C3 33.3029 3.69709 34 4.55699 34H33.443C34.3029 34 35 33.3029 35 32.443V3.55699C35 2.69709 34.3029 2 33.443 2Z" fill="url(#paint0_linear_2119_1864)"/>
<path d="M29.4945 26.3352L28.688 25.5287L19.9978 16.8385L22.5758 14.2606L23.1934 13.6417C23.2524 13.5819 23.2856 13.5015 23.286 13.4175C23.2858 13.376 23.2774 13.3349 23.2613 13.2967C23.2452 13.2584 23.2218 13.2237 23.1922 13.1946L22.5733 12.5757L19.8395 9.83691L19.2206 9.21801C19.1913 9.18825 19.1564 9.16461 19.1179 9.14847C19.0794 9.13233 19.0381 9.12402 18.9964 9.12402C18.9547 9.12402 18.9133 9.13233 18.8748 9.14847C18.8364 9.16461 18.8015 9.18825 18.7722 9.21801L18.1533 9.83813L14.803 13.1885C14.7733 13.2176 14.7496 13.2524 14.7335 13.2908C14.7174 13.3292 14.7091 13.3704 14.7091 13.412C14.7091 13.4537 14.7174 13.4949 14.7335 13.5333C14.7496 13.5717 14.7733 13.6064 14.803 13.6356L18.0035 16.8373L9.31208 25.5287L8.50921 26.3352C8.44968 26.3942 8.41595 26.4743 8.41541 26.5581C8.41575 26.6391 8.44664 26.717 8.5019 26.7762C8.53141 26.8077 8.56707 26.8329 8.60667 26.8501C8.64628 26.8672 8.68899 26.8761 8.73216 26.8761H16.55C16.6339 26.8758 16.7143 26.8423 16.7737 26.783C16.833 26.7237 16.8665 26.6433 16.8668 26.5594V25.7821C16.8668 25.698 16.8335 25.6173 16.7741 25.5577C16.7147 25.4981 16.6342 25.4644 16.55 25.4641H11.3722L19 17.8363L26.6278 25.4641H21.405C21.3209 25.4644 21.2403 25.4981 21.1809 25.5577C21.1215 25.6173 21.0882 25.698 21.0882 25.7821V26.5594C21.0881 26.6011 21.0963 26.6425 21.1124 26.681C21.1285 26.7195 21.1522 26.7543 21.182 26.7835C21.2412 26.8426 21.3214 26.8759 21.405 26.8761H29.2704C29.3137 26.8763 29.3567 26.8675 29.3965 26.8503C29.4363 26.8331 29.4722 26.8079 29.5018 26.7762C29.5588 26.7165 29.5899 26.6367 29.5885 26.5542C29.5872 26.4717 29.5534 26.393 29.4945 26.3352ZM18.9952 10.9906L21.4232 13.4187L19.0013 15.8407L16.5732 13.4126L18.9952 10.9906Z" fill="white"/>
</g>
<path d="M45 8.43559V7H57.715V8.43559H52.1551V24.535H50.557V8.43559H45Z" fill="#101828" stroke="#101828" stroke-width="1.22" stroke-miterlimit="10"/>
<path d="M62.0389 24.8334C61.2885 24.8426 60.5455 24.6833 59.8649 24.3672C59.2264 24.071 58.6833 23.6025 58.2967 23.0143C57.8944 22.3695 57.692 21.6199 57.715 20.8602C57.6965 20.29 57.823 19.7244 58.0829 19.2165C58.3315 18.7675 58.6913 18.39 59.1278 18.1202C59.6244 17.8156 60.1642 17.5878 60.7288 17.4445C61.3984 17.2678 62.0796 17.1387 62.7674 17.0581C63.503 16.9631 64.1265 16.8832 64.6378 16.8186C65.0437 16.7808 65.4396 16.6707 65.8068 16.4936C65.936 16.425 66.0427 16.3206 66.114 16.1929C66.1853 16.0652 66.2182 15.9196 66.2088 15.7736V15.4657C66.2088 14.5704 65.9422 13.8643 65.4091 13.3472C64.8759 12.8302 64.1094 12.5717 63.1096 12.5717C62.1591 12.5717 61.3869 12.7799 60.7929 13.1961C60.243 13.5581 59.8078 14.0695 59.5384 14.6702L58.0985 14.147C58.3568 13.4774 58.7782 12.883 59.3246 12.4177C59.8449 11.9915 60.4463 11.6753 61.0923 11.4882C61.7348 11.2989 62.4012 11.2029 63.0711 11.2031C63.5997 11.2067 64.1261 11.2728 64.6392 11.3999C65.1838 11.5305 65.6991 11.7616 66.1589 12.0813C66.6468 12.4256 67.0392 12.8882 67.2994 13.4257C67.5902 13.9959 67.7357 14.722 67.7357 15.604V24.5354H66.2088V22.454H66.1147C65.9099 22.8746 65.6346 23.257 65.3007 23.5846C64.9122 23.9691 64.4527 24.2746 63.9478 24.4841C63.342 24.7296 62.6924 24.8485 62.0389 24.8334ZM62.2442 23.4377C62.9829 23.4566 63.7123 23.27 64.3513 22.8988C64.9307 22.5534 65.4057 22.0572 65.7256 21.4632C66.0504 20.8568 66.2167 20.1781 66.2088 19.4902V17.5899C66.0412 17.7244 65.8468 17.8216 65.6386 17.875C65.338 17.9692 65.0318 18.0449 64.7219 18.1017C64.3769 18.1672 64.0329 18.2228 63.6898 18.2685L62.766 18.3882C62.1177 18.4571 61.4796 18.6006 60.8642 18.8159C60.3979 18.9707 59.9812 19.2467 59.6567 19.6157C59.366 19.9899 59.218 20.4553 59.239 20.9286C59.239 21.7289 59.5241 22.3467 60.0944 22.7819C60.6646 23.2172 61.3812 23.4358 62.2442 23.4377Z" fill="#101828" stroke="#101828" stroke-width="1.22" stroke-miterlimit="10"/>
<path d="M71.9811 16.3138V24.5353H70.4572V11.3812H71.9384V13.4455H72.0809C72.3889 12.7723 72.8914 12.2067 73.5236 11.8217C74.1785 11.414 74.9863 11.2101 75.9472 11.2101C76.7589 11.1926 77.5616 11.3825 78.2795 11.7618C78.9533 12.1335 79.4997 12.6992 79.8477 13.3856C80.2212 14.0984 80.4079 14.9747 80.4079 16.0144V24.5353H78.8825V16.1099C78.8825 15.0312 78.5812 14.1758 77.9787 13.5438C77.3761 12.9118 76.5683 12.5977 75.5551 12.6015C74.9132 12.5895 74.279 12.7426 73.7133 13.0463C73.1763 13.3448 72.7353 13.7898 72.4416 14.3293C72.1197 14.9401 71.9611 15.6237 71.9811 16.3138Z" fill="#101828" stroke="#101828" stroke-width="1.22" stroke-miterlimit="10"/>
<path d="M88.1219 29.7381C87.3237 29.7529 86.5284 29.6359 85.7683 29.3917C85.1423 29.1895 84.5613 28.8681 84.0575 28.4451C83.6155 28.0707 83.2496 27.6148 82.9798 27.1021L84.23 26.2796C84.4387 26.6367 84.6932 26.965 84.987 27.2561C85.3438 27.6013 85.766 27.8718 86.2287 28.0516C86.8313 28.2793 87.4724 28.3872 88.1162 28.3695C89.2805 28.3695 90.2209 28.0782 90.9375 27.4956C91.6541 26.913 92.0124 26.0101 92.0124 24.7869V21.826H91.8699C91.6726 22.2575 91.4164 22.6595 91.1086 23.0206C90.7502 23.4373 90.3082 23.7739 89.8113 24.0086C89.1918 24.2848 88.5175 24.4159 87.8397 24.3921C86.8518 24.4107 85.8799 24.1412 85.0426 23.6165C84.2051 23.0694 83.5402 22.2957 83.1252 21.3854C82.6595 20.4189 82.4266 19.2646 82.4266 17.9226C82.4266 16.5807 82.6543 15.4107 83.1095 14.4128C83.5136 13.4643 84.1729 12.6466 85.0141 12.0505C85.8522 11.4754 86.849 11.1764 87.8653 11.1952C88.6713 11.1952 89.3394 11.3377 89.8697 11.6229C90.3668 11.8779 90.8042 12.2355 91.1528 12.6721C91.4497 13.048 91.7036 13.4558 91.9098 13.8881H92.0638V11.3791H93.5535V24.8739C93.5535 25.9878 93.3159 26.904 92.8407 27.6225C92.3711 28.3377 91.6963 28.8943 90.9047 29.2192C90.0215 29.5776 89.075 29.7541 88.1219 29.7381ZM88.0193 23.0007C88.7873 23.0224 89.5435 22.8084 90.1862 22.3876C90.809 21.9499 91.2886 21.3379 91.5648 20.6284C91.9032 19.7585 92.066 18.8302 92.0438 17.897C92.0606 16.9636 91.901 16.0354 91.5734 15.1612C91.3007 14.4179 90.8281 13.7642 90.2076 13.2723C89.5592 12.8183 88.786 12.5766 87.9945 12.5804C87.203 12.5843 86.4322 12.8334 85.7882 13.2937C85.1637 13.7927 84.6896 14.4549 84.4182 15.2068C84.0998 16.0655 83.9427 16.9756 83.9549 17.8913C83.9372 18.7998 84.0975 19.7031 84.4268 20.55C84.703 21.2698 85.1818 21.8942 85.8053 22.3477C86.455 22.7955 87.2306 23.0242 88.0193 23.0007Z" fill="#101828" stroke="#101828" stroke-width="1.22" stroke-miterlimit="10"/>
<path d="M101.379 24.8073C100.311 24.8274 99.2618 24.5258 98.3677 23.9419C97.4808 23.3462 96.7746 22.5182 96.3262 21.5483C95.8368 20.5304 95.592 19.3534 95.592 18.0171C95.592 16.6808 95.8377 15.4928 96.3291 14.4531C96.7753 13.4811 97.4819 12.6517 98.3706 12.0566C99.2725 11.4925 100.315 11.1934 101.379 11.1934C102.442 11.1934 103.485 11.4925 104.387 12.0566C105.273 12.6576 105.979 13.4898 106.427 14.463C106.922 15.4857 107.169 16.6704 107.168 18.0171C107.167 19.3638 106.92 20.5409 106.427 21.5483C105.978 22.5182 105.272 23.3462 104.385 23.9419C103.492 24.5251 102.445 24.8266 101.379 24.8073ZM101.379 23.4116C102.212 23.4392 103.03 23.1817 103.698 22.6817C104.35 22.1694 104.849 21.4893 105.144 20.7143C105.801 18.9734 105.801 17.0522 105.144 15.3113C104.849 14.5344 104.351 13.8513 103.701 13.3339C103.025 12.8491 102.215 12.5883 101.383 12.5883C100.551 12.5883 99.7405 12.8491 99.0648 13.3339C98.4127 13.8502 97.9127 14.5335 97.6178 15.3113C96.9621 17.0526 96.9621 18.973 97.6178 20.7143C97.9104 21.4886 98.4082 22.1687 99.0577 22.6817C99.6935 23.1692 100.467 23.4125 101.379 23.4116Z" fill="#101828" stroke="#101828" stroke-width="1.22" stroke-miterlimit="10"/>
<path d="M109.368 24.535V7H119.542V8.43559H110.969V15.0376H118.999V16.476H110.969V23.0951H119.711V24.535H109.368Z" fill="#101828" stroke="#101828" stroke-width="1.22" stroke-miterlimit="10"/>
<path d="M123.575 29.4647C123.291 29.4666 123.007 29.4379 122.729 29.3792C122.514 29.3373 122.305 29.2742 122.103 29.191L122.513 27.8467C122.959 27.9975 123.431 28.0571 123.9 28.022C124.314 27.9753 124.697 27.781 124.98 27.4746C125.293 27.1524 125.573 26.6601 125.819 25.9977L126.298 24.6619L121.461 11.3809H123.113L127.018 22.5206H127.138L131.043 11.3809H132.695L127.135 26.6135C126.935 27.1863 126.642 27.7227 126.27 28.2016C125.954 28.6068 125.548 28.9325 125.084 29.1525C124.61 29.3667 124.095 29.4733 123.575 29.4647Z" fill="#101828" stroke="#101828" stroke-width="1.22" stroke-miterlimit="10"/>
<path d="M139.656 24.8068C138.429 24.8068 137.368 24.5217 136.472 23.9515C135.567 23.3687 134.847 22.5405 134.396 21.5636C133.906 20.5438 133.662 19.3691 133.663 18.0395C133.64 16.8219 133.891 15.6148 134.396 14.5068C134.839 13.5292 135.54 12.6912 136.424 12.0833C137.312 11.4909 138.359 11.1844 139.425 11.2051C140.134 11.2014 140.837 11.3321 141.497 11.59C142.169 11.8572 142.777 12.2628 143.282 12.7804C143.836 13.3563 144.263 14.042 144.536 14.7933C144.863 15.7121 145.019 16.6826 144.998 17.6574V18.4044H134.724V17.0601H143.44C143.452 16.2703 143.278 15.4887 142.931 14.7791C142.612 14.1269 142.124 13.5721 141.518 13.1724C140.871 12.7736 140.124 12.569 139.364 12.5829C138.604 12.5968 137.865 12.8286 137.233 13.2508C136.594 13.7009 136.082 14.3083 135.747 15.0143C135.386 15.7613 135.2 16.5809 135.203 17.4108V18.2162C135.181 19.1571 135.367 20.091 135.747 20.952C136.076 21.6926 136.613 22.3217 137.293 22.7625C137.894 23.1132 138.566 23.3265 139.259 23.3874C139.953 23.4483 140.651 23.3551 141.304 23.1146C141.75 22.9368 142.154 22.67 142.493 22.3305C142.805 22.02 143.054 21.6521 143.226 21.2471L144.673 21.719C144.46 22.2942 144.125 22.8169 143.692 23.2515C143.21 23.7385 142.633 24.1217 141.997 24.3777C141.253 24.6752 140.457 24.8211 139.656 24.8068Z" fill="#101828" stroke="#101828" stroke-width="1.22" stroke-miterlimit="10"/>
<defs>
<filter id="filter0_dd_2119_1864" x="0" y="0" width="38" height="38" filterUnits="userSpaceOnUse" color-interpolation-filters="sRGB">
<feFlood flood-opacity="0" result="BackgroundImageFix"/>
<feColorMatrix in="SourceAlpha" type="matrix" values="0 0 0 0 0 0 0 0 0 0 0 0 0 0 0 0 0 0 127 0" result="hardAlpha"/>
<feOffset dy="1"/>
<feGaussianBlur stdDeviation="1"/>
<feColorMatrix type="matrix" values="0 0 0 0 0.0627451 0 0 0 0 0.0941176 0 0 0 0 0.156863 0 0 0 0.06 0"/>
<feBlend mode="normal" in2="BackgroundImageFix" result="effect1_dropShadow_2119_1864"/>
<feColorMatrix in="SourceAlpha" type="matrix" values="0 0 0 0 0 0 0 0 0 0 0 0 0 0 0 0 0 0 127 0" result="hardAlpha"/>
<feOffset dy="1"/>
<feGaussianBlur stdDeviation="1.5"/>
<feColorMatrix type="matrix" values="0 0 0 0 0.0627451 0 0 0 0 0.0941176 0 0 0 0 0.156863 0 0 0 0.1 0"/>
<feBlend mode="normal" in2="effect1_dropShadow_2119_1864" result="effect2_dropShadow_2119_1864"/>
<feBlend mode="normal" in="SourceGraphic" in2="effect2_dropShadow_2119_1864" result="shape"/>
</filter>
<linearGradient id="paint0_linear_2119_1864" x1="9.69459" y1="5.74507" x2="31.5729" y2="34.5604" gradientUnits="userSpaceOnUse">
<stop stop-color="#794FD9"/>
<stop offset="1" stop-color="#33B1F7"/>
</linearGradient>
</defs>
</svg>
