<svg width="160" height="120" fill="none" xmlns="http://www.w3.org/2000/svg">
    <circle cx="82" cy="52" r="52" fill="#EAECF0"/>
    <g filter="url(#a)">
        <path d="m47.725 79.11 33.238-15.5a3.334 3.334 0 0 0 1.613-4.43l-19.63-42.095-13.292-4.838L22.46 24.928a3.334 3.334 0 0 0-1.613 4.431l22.448 48.139a3.334 3.334 0 0 0 4.43 1.612Z" fill="url(#b)"/>
        <path d="m49.656 12.247 13.292 4.838-9.065 4.227-4.227-9.065Z" fill="#D0D5DD"/>
    </g>
    <g filter="url(#c)">
        <path d="M63.615 67.783h36.675a3.334 3.334 0 0 0 3.334-3.334V18.002L93.622 8H63.615a3.334 3.334 0 0 0-3.334 3.334V64.45a3.334 3.334 0 0 0 3.334 3.334Z" fill="url(#d)"/>
        <path d="m93.621 8 10.002 10.002H93.621V8Z" fill="#D0D5DD"/>
    </g>
    <g filter="url(#e)">
        <path d="m82.471 63.59 33.239 15.5a3.333 3.333 0 0 0 4.43-1.612l19.63-42.095-4.838-13.293L107.737 9.41a3.334 3.334 0 0 0-4.431 1.613L80.858 59.16a3.334 3.334 0 0 0 1.613 4.43Z" fill="url(#f)"/>
        <path d="m134.934 22.09 4.838 13.293-9.066-4.228 4.228-9.065Z" fill="#D0D5DD"/>
    </g>
    <circle cx="27" cy="11" r="5" fill="#F2F4F7"/>
    <circle cx="24" cy="109" r="7" fill="#F2F4F7"/>
    <circle cx="151" cy="35" r="7" fill="#F2F4F7"/>
    <circle cx="140" cy="8" r="4" fill="#F2F4F7"/>
    <g filter="url(#g)">
        <rect x="58" y="62" width="48" height="48" rx="24" fill="#344054" fill-opacity=".4"/>
        <path d="M91 79c0 1.657-4.03 3-9 3s-9-1.343-9-3m18 0c0-1.657-4.03-3-9-3s-9 1.343-9 3m18 0v14c0 1.66-4 3-9 3s-9-1.34-9-3V79m18 7c0 1.66-4 3-9 3s-9-1.34-9-3" stroke="#fff" stroke-width="2" stroke-linecap="round" stroke-linejoin="round"/>
    </g>
    <defs>
        <filter id="a" x="-.563" y="8.02" width="104.547" height="112.499" filterUnits="userSpaceOnUse" color-interpolation-filters="sRGB">
            <feFlood flood-opacity="0" result="BackgroundImageFix"/>
            <feColorMatrix in="SourceAlpha" values="0 0 0 0 0 0 0 0 0 0 0 0 0 0 0 0 0 0 127 0" result="hardAlpha"/>
            <feMorphology radius="4" in="SourceAlpha" result="effect1_dropShadow_12087_79814"/>
            <feOffset dy="8"/>
            <feGaussianBlur stdDeviation="4"/>
            <feColorMatrix values="0 0 0 0 0.0627451 0 0 0 0 0.0941176 0 0 0 0 0.156863 0 0 0 0.03 0"/>
            <feBlend in2="BackgroundImageFix" result="effect1_dropShadow_12087_79814"/>
            <feColorMatrix in="SourceAlpha" values="0 0 0 0 0 0 0 0 0 0 0 0 0 0 0 0 0 0 127 0" result="hardAlpha"/>
            <feMorphology radius="4" in="SourceAlpha" result="effect2_dropShadow_12087_79814"/>
            <feOffset dy="20"/>
            <feGaussianBlur stdDeviation="12"/>
            <feColorMatrix values="0 0 0 0 0.0627451 0 0 0 0 0.0941176 0 0 0 0 0.156863 0 0 0 0.08 0"/>
            <feBlend in2="effect1_dropShadow_12087_79814" result="effect2_dropShadow_12087_79814"/>
            <feBlend in="SourceGraphic" in2="effect2_dropShadow_12087_79814" result="shape"/>
        </filter>
        <filter id="c" x="40.281" y="8" width="83.344" height="99.783" filterUnits="userSpaceOnUse" color-interpolation-filters="sRGB">
            <feFlood flood-opacity="0" result="BackgroundImageFix"/>
            <feColorMatrix in="SourceAlpha" values="0 0 0 0 0 0 0 0 0 0 0 0 0 0 0 0 0 0 127 0" result="hardAlpha"/>
            <feMorphology radius="4" in="SourceAlpha" result="effect1_dropShadow_12087_79814"/>
            <feOffset dy="8"/>
            <feGaussianBlur stdDeviation="4"/>
            <feColorMatrix values="0 0 0 0 0.0627451 0 0 0 0 0.0941176 0 0 0 0 0.156863 0 0 0 0.03 0"/>
            <feBlend in2="BackgroundImageFix" result="effect1_dropShadow_12087_79814"/>
            <feColorMatrix in="SourceAlpha" values="0 0 0 0 0 0 0 0 0 0 0 0 0 0 0 0 0 0 127 0" result="hardAlpha"/>
            <feMorphology radius="4" in="SourceAlpha" result="effect2_dropShadow_12087_79814"/>
            <feOffset dy="20"/>
            <feGaussianBlur stdDeviation="12"/>
            <feColorMatrix values="0 0 0 0 0.0627451 0 0 0 0 0.0941176 0 0 0 0 0.156863 0 0 0 0.08 0"/>
            <feBlend in2="effect1_dropShadow_12087_79814" result="effect2_dropShadow_12087_79814"/>
            <feBlend in="SourceGraphic" in2="effect2_dropShadow_12087_79814" result="shape"/>
        </filter>
        <filter id="e" x="59.449" y="8" width="104.547" height="112.499" filterUnits="userSpaceOnUse" color-interpolation-filters="sRGB">
            <feFlood flood-opacity="0" result="BackgroundImageFix"/>
            <feColorMatrix in="SourceAlpha" values="0 0 0 0 0 0 0 0 0 0 0 0 0 0 0 0 0 0 127 0" result="hardAlpha"/>
            <feMorphology radius="4" in="SourceAlpha" result="effect1_dropShadow_12087_79814"/>
            <feOffset dy="8"/>
            <feGaussianBlur stdDeviation="4"/>
            <feColorMatrix values="0 0 0 0 0.0627451 0 0 0 0 0.0941176 0 0 0 0 0.156863 0 0 0 0.03 0"/>
            <feBlend in2="BackgroundImageFix" result="effect1_dropShadow_12087_79814"/>
            <feColorMatrix in="SourceAlpha" values="0 0 0 0 0 0 0 0 0 0 0 0 0 0 0 0 0 0 127 0" result="hardAlpha"/>
            <feMorphology radius="4" in="SourceAlpha" result="effect2_dropShadow_12087_79814"/>
            <feOffset dy="20"/>
            <feGaussianBlur stdDeviation="12"/>
            <feColorMatrix values="0 0 0 0 0.0627451 0 0 0 0 0.0941176 0 0 0 0 0.156863 0 0 0 0.08 0"/>
            <feBlend in2="effect1_dropShadow_12087_79814" result="effect2_dropShadow_12087_79814"/>
            <feBlend in="SourceGraphic" in2="effect2_dropShadow_12087_79814" result="shape"/>
        </filter>
        <filter id="g" x="50" y="54" width="64" height="64" filterUnits="userSpaceOnUse" color-interpolation-filters="sRGB">
            <feFlood flood-opacity="0" result="BackgroundImageFix"/>
            <feGaussianBlur in="BackgroundImageFix" stdDeviation="4"/>
            <feComposite in2="SourceAlpha" operator="in" result="effect1_backgroundBlur_12087_79814"/>
            <feBlend in="SourceGraphic" in2="effect1_backgroundBlur_12087_79814" result="shape"/>
        </filter>
        <linearGradient id="b" x1="45.772" y1="79.24" x2="19.283" y2="31.453" gradientUnits="userSpaceOnUse">
            <stop stop-color="#E4E7EC"/>
            <stop offset="1" stop-color="#F9FAFB"/>
        </linearGradient>
        <linearGradient id="d" x1="61.791" y1="67.076" x2="57.98" y2="12.571" gradientUnits="userSpaceOnUse">
            <stop stop-color="#E4E7EC"/>
            <stop offset="1" stop-color="#F9FAFB"/>
        </linearGradient>
        <linearGradient id="f" x1="81.117" y1="62.178" x2="100.697" y2="11.17" gradientUnits="userSpaceOnUse">
            <stop stop-color="#E4E7EC"/>
            <stop offset="1" stop-color="#F9FAFB"/>
        </linearGradient>
    </defs>
</svg>
