<svg width="18" height="18" viewBox="0 0 18 18" fill="none" xmlns="http://www.w3.org/2000/svg">
<g clip-path="url(#clip0_2210_770)">
<path d="M12.3 15.3002V13.9002C12.3 13.1576 12.005 12.4454 11.4799 11.9203C10.9548 11.3952 10.2426 11.1002 9.50001 11.1002H3.90001C3.1574 11.1002 2.44521 11.3952 1.92011 11.9203C1.39501 12.4454 1.10001 13.1576 1.10001 13.9002V15.3002M16.5 15.3002V13.9002C16.4995 13.2798 16.2931 12.6771 15.913 12.1868C15.5329 11.6965 15.0007 11.3463 14.4 11.1912M11.6 2.7912C12.2023 2.94541 12.7361 3.29569 13.1174 3.78681C13.4986 4.27794 13.7055 4.88198 13.7055 5.5037C13.7055 6.12541 13.4986 6.72945 13.1174 7.22058C12.7361 7.7117 12.2023 8.06199 11.6 8.2162M9.50001 5.5002C9.50001 7.04659 8.2464 8.3002 6.70001 8.3002C5.15361 8.3002 3.90001 7.04659 3.90001 5.5002C3.90001 3.9538 5.15361 2.7002 6.70001 2.7002C8.2464 2.7002 9.50001 3.9538 9.50001 5.5002Z" stroke="#33B5FF" stroke-width="1.4" stroke-linecap="round" stroke-linejoin="round"/>
</g>
<defs>
<clipPath id="clip0_2210_770">
<rect width="16.8" height="16.8" fill="white" transform="translate(0.399994 0.600586)"/>
</clipPath>
</defs>
</svg>
