<svg width="18" height="18" viewBox="0 0 18 18" fill="none" xmlns="http://www.w3.org/2000/svg">
<mask id="path-1-inside-1_2210_921" fill="white">
<path fill-rule="evenodd" clip-rule="evenodd" d="M7.05001 3.4C5.89021 3.4 4.95001 4.3402 4.95001 5.5C4.95001 6.6598 5.89021 7.6 7.05001 7.6C8.2098 7.6 9.15001 6.6598 9.15001 5.5C9.15001 4.3402 8.2098 3.4 7.05001 3.4ZM3.55001 5.5C3.55001 3.567 5.11701 2 7.05001 2C8.983 2 10.55 3.567 10.55 5.5C10.55 7.433 8.983 9 7.05001 9C5.11701 9 3.55001 7.433 3.55001 5.5ZM2.12513 11.4251C2.78151 10.7688 3.67175 10.4 4.60001 10.4H9.50001C10.4283 10.4 11.3185 10.7688 11.9749 11.4251C12.6313 12.0815 13 12.9717 13 13.9V15.3C13 15.6866 12.6866 16 12.3 16C11.9134 16 11.6 15.6866 11.6 15.3V13.9C11.6 13.343 11.3788 12.8089 10.9849 12.4151C10.5911 12.0213 10.057 11.8 9.50001 11.8H4.60001C4.04305 11.8 3.50891 12.0213 3.11508 12.4151C2.72126 12.8089 2.50001 13.343 2.50001 13.9V15.3C2.50001 15.6866 2.18661 16 1.80001 16C1.41341 16 1.10001 15.6866 1.10001 15.3V13.9C1.10001 12.9717 1.46876 12.0815 2.12513 11.4251Z"/>
<path d="M15.8 8.3C15.8 9.4598 14.8598 10.4 13.7 10.4C12.5402 10.4 11.6 9.4598 11.6 8.3C11.6 7.1402 12.5402 6.2 13.7 6.2C14.8598 6.2 15.8 7.1402 15.8 8.3Z"/>
</mask>
<path d="M2.12513 11.4251L3.11508 12.4151L3.11508 12.4151L2.12513 11.4251ZM11.9749 11.4251L10.9849 12.4151L10.9849 12.4151L11.9749 11.4251ZM10.9849 12.4151L11.9749 11.4251L11.9749 11.4251L10.9849 12.4151ZM3.11508 12.4151L2.12513 11.4251L2.12513 11.4251L3.11508 12.4151ZM6.35001 5.5C6.35001 5.1134 6.66341 4.8 7.05001 4.8V2C5.11701 2 3.55001 3.567 3.55001 5.5H6.35001ZM7.05001 6.2C6.66341 6.2 6.35001 5.8866 6.35001 5.5H3.55001C3.55001 7.433 5.11701 9 7.05001 9V6.2ZM7.75001 5.5C7.75001 5.8866 7.43661 6.2 7.05001 6.2V9C8.983 9 10.55 7.433 10.55 5.5H7.75001ZM7.05001 4.8C7.43661 4.8 7.75001 5.1134 7.75001 5.5H10.55C10.55 3.567 8.983 2 7.05001 2V4.8ZM7.05001 0.6C4.34381 0.6 2.15001 2.7938 2.15001 5.5H4.95001C4.95001 4.3402 5.89021 3.4 7.05001 3.4V0.6ZM11.95 5.5C11.95 2.7938 9.7562 0.6 7.05001 0.6V3.4C8.2098 3.4 9.15001 4.3402 9.15001 5.5H11.95ZM7.05001 10.4C9.7562 10.4 11.95 8.2062 11.95 5.5H9.15001C9.15001 6.6598 8.2098 7.6 7.05001 7.6V10.4ZM2.15001 5.5C2.15001 8.2062 4.34381 10.4 7.05001 10.4V7.6C5.89021 7.6 4.95001 6.6598 4.95001 5.5H2.15001ZM4.60001 9C3.30044 9 2.05411 9.51625 1.13518 10.4352L3.11508 12.4151C3.50891 12.0213 4.04305 11.8 4.60001 11.8V9ZM9.50001 9H4.60001V11.8H9.50001V9ZM12.9648 10.4352C12.0459 9.51625 10.7996 9 9.50001 9V11.8C10.057 11.8 10.5911 12.0213 10.9849 12.4151L12.9648 10.4352ZM14.4 13.9C14.4 12.6004 13.8838 11.3541 12.9648 10.4352L10.9849 12.4151C11.3788 12.8089 11.6 13.343 11.6 13.9H14.4ZM14.4 15.3V13.9H11.6V15.3H14.4ZM12.3 17.4C13.4598 17.4 14.4 16.4598 14.4 15.3H11.6C11.6 14.9134 11.9134 14.6 12.3 14.6V17.4ZM10.2 15.3C10.2 16.4598 11.1402 17.4 12.3 17.4V14.6C12.6866 14.6 13 14.9134 13 15.3H10.2ZM10.2 13.9V15.3H13V13.9H10.2ZM9.99498 13.405C10.1263 13.5363 10.2 13.7143 10.2 13.9H13C13 12.9717 12.6313 12.0815 11.9749 11.4251L9.99498 13.405ZM9.50001 13.2C9.68566 13.2 9.86371 13.2738 9.99498 13.405L11.9749 11.4251C11.3185 10.7687 10.4283 10.4 9.50001 10.4V13.2ZM4.60001 13.2H9.50001V10.4H4.60001V13.2ZM4.10503 13.405C4.23631 13.2738 4.41436 13.2 4.60001 13.2V10.4C3.67175 10.4 2.78151 10.7687 2.12513 11.4251L4.10503 13.405ZM3.90001 13.9C3.90001 13.7143 3.97376 13.5363 4.10503 13.405L2.12513 11.4251C1.46876 12.0815 1.10001 12.9717 1.10001 13.9H3.90001ZM3.90001 15.3V13.9H1.10001V15.3H3.90001ZM1.80001 17.4C2.9598 17.4 3.90001 16.4598 3.90001 15.3H1.10001C1.10001 14.9134 1.41341 14.6 1.80001 14.6V17.4ZM-0.299994 15.3C-0.299994 16.4598 0.640208 17.4 1.80001 17.4V14.6C2.18661 14.6 2.50001 14.9134 2.50001 15.3H-0.299994ZM-0.299994 13.9V15.3H2.50001V13.9H-0.299994ZM1.13518 10.4352C0.216255 11.3541 -0.299994 12.6004 -0.299994 13.9H2.50001C2.50001 13.343 2.72126 12.8089 3.11508 12.4151L1.13518 10.4352ZM14.4 8.3C14.4 8.6866 14.0866 9 13.7 9V11.8C15.633 11.8 17.2 10.233 17.2 8.3H14.4ZM13.7 9C13.3134 9 13 8.6866 13 8.3H10.2C10.2 10.233 11.767 11.8 13.7 11.8V9ZM13 8.3C13 7.9134 13.3134 7.6 13.7 7.6V4.8C11.767 4.8 10.2 6.367 10.2 8.3H13ZM13.7 7.6C14.0866 7.6 14.4 7.9134 14.4 8.3H17.2C17.2 6.367 15.633 4.8 13.7 4.8V7.6Z" fill="#33B5FF" mask="url(#path-1-inside-1_2210_921)"/>
</svg>
