<svg width="21" height="21" viewBox="0 0 21 21" fill="none" xmlns="http://www.w3.org/2000/svg">
<path d="M10.6666 20.333C9.28329 20.333 7.98329 20.0703 6.76663 19.545C5.54996 19.0197 4.49163 18.3073 3.59163 17.408C2.69163 16.5087 1.97929 15.4503 1.45463 14.233C0.929959 13.0157 0.667293 11.7157 0.666626 10.333H2.66663C2.66663 11.433 2.87496 12.4707 3.29163 13.446C3.70829 14.4213 4.27929 15.2713 5.00463 15.996C5.72996 16.7207 6.57996 17.2957 7.55463 17.721C8.52929 18.1463 9.56663 18.3587 10.6666 18.358C12.9 18.358 14.7916 17.583 16.3416 16.033C17.8916 14.483 18.6666 12.5913 18.6666 10.358C18.6666 8.12467 17.8916 6.23301 16.3416 4.68301C14.7916 3.13301 12.9 2.35801 10.6666 2.35801C9.18329 2.35801 7.83729 2.72067 6.62863 3.44601C5.41996 4.17134 4.46596 5.13368 3.76663 6.33301H6.66663V8.33301H0.666626V2.33301H2.66663V4.33301C3.58329 3.11634 4.73329 2.14567 6.11663 1.42101C7.49996 0.696341 9.01663 0.333674 10.6666 0.333008C12.05 0.333008 13.35 0.595675 14.5666 1.12101C15.7833 1.64634 16.8416 2.35868 17.7416 3.25801C18.6416 4.15734 19.3543 5.21568 19.8796 6.43301C20.405 7.65034 20.6673 8.95034 20.6666 10.333C20.666 11.7157 20.4033 13.0157 19.8786 14.233C19.354 15.4503 18.6416 16.5087 17.7416 17.408C16.8416 18.3073 15.7833 19.02 14.5666 19.546C13.35 20.072 12.05 20.3343 10.6666 20.333ZM8.66663 14.333C8.38329 14.333 8.14596 14.237 7.95463 14.045C7.76329 13.853 7.66729 13.6157 7.66663 13.333V10.333C7.66663 10.0497 7.76263 9.81234 7.95463 9.62101C8.14663 9.42968 8.38396 9.33368 8.66663 9.33301V8.33301C8.66663 7.78301 8.86263 7.31234 9.25463 6.92101C9.64663 6.52968 10.1173 6.33368 10.6666 6.33301C11.216 6.33234 11.687 6.52834 12.0796 6.92101C12.4723 7.31368 12.668 7.78434 12.6666 8.33301V9.33301C12.95 9.33301 13.1876 9.42901 13.3796 9.62101C13.5716 9.81301 13.6673 10.0503 13.6666 10.333V13.333C13.6666 13.6163 13.5706 13.854 13.3786 14.046C13.1866 14.238 12.9493 14.3337 12.6666 14.333H8.66663ZM9.66663 9.33301H11.6666V8.33301C11.6666 8.04968 11.5706 7.81234 11.3786 7.62101C11.1866 7.42968 10.9493 7.33368 10.6666 7.33301C10.384 7.33234 10.1466 7.42834 9.95463 7.62101C9.76263 7.81368 9.66663 8.05101 9.66663 8.33301V9.33301Z" fill="#667085"/>
</svg>
