<svg width="14" height="12" viewBox="0 0 14 12" fill="none" xmlns="http://www.w3.org/2000/svg">
<path d="M1.7135 2.9692L1.67505 3.02926C1.27201 3.74214 1.70234 4.64307 2.4763 4.7464C2.54641 4.75498 2.61165 4.75951 2.6754 4.75951C3.09295 4.75951 3.46212 4.58038 3.71943 4.30108L4.11906 3.8673L4.51733 4.30233C4.77152 4.57997 5.13986 4.75951 5.56023 4.75951C5.97872 4.75951 6.34917 4.57972 6.60312 4.30233L7.00265 3.86593L7.40217 4.30233C7.65612 4.57972 8.02658 4.75951 8.44506 4.75951C8.86355 4.75951 9.23401 4.57972 9.48796 4.30233L9.88748 3.86593L10.287 4.30233C10.541 4.57972 10.9114 4.75951 11.3299 4.75951C11.3915 4.75951 11.4588 4.75496 11.5284 4.74648C12.3193 4.63864 12.7511 3.68944 12.2898 2.96956C12.2898 2.96952 12.2898 2.96948 12.2897 2.96944L11.02 0.989531L11.02 0.989532L11.0193 0.988473C11.0083 0.971261 10.9812 0.952799 10.9472 0.952799H3.0537C3.01965 0.952799 2.99257 0.971261 2.98159 0.988473L2.98114 0.98917L1.7135 2.9692ZM11.0818 6.53212V8.79407V9.33574H10.5401H3.46076H2.91909V8.79407V6.53246C2.83948 6.53838 2.75894 6.54142 2.67761 6.54142C2.64706 6.54142 2.6167 6.54097 2.58656 6.54009V8.79407V10.1912C2.58656 10.6559 2.97216 11.0467 3.46076 11.0467H10.5401C11.0287 11.0467 11.4143 10.6559 11.4143 10.1912V8.79407V6.54022C11.3855 6.54102 11.3567 6.54142 11.3277 6.54142C11.245 6.54142 11.163 6.53828 11.0818 6.53212Z" stroke="#33B5FF" stroke-width="1.08333"/>
</svg>
