<svg width="24" height="24" viewBox="0 0 24 24" fill="none" xmlns="http://www.w3.org/2000/svg">
<path d="M1.01587 23.7334H8.12698C9.14286 23.7334 9.14286 23.2821 9.14286 21.477V10.2519C9.14286 9.59692 8.68841 9.06673 8.12698 9.06673H1.01587C0.40635 9.06673 0 9.51801 0 10.1949V22.6052C0 23.2821 0.40635 23.7334 1.01587 23.7334Z" fill="#667085"/>
<path d="M1.01081 6.66666H8.08648C8.69297 6.66666 9.09729 6.13333 9.09729 5.33333V1.33333C9.09729 0.533333 8.69297 0 8.08648 0H1.01081C0.404324 0 0 0.533333 0 1.33333V5.33333C0 6 0.404324 6.66666 1.01081 6.66666Z" fill="#667085"/>
<path d="M3.40505 2.86966C3.40505 3.30267 3.1376 3.6537 2.80768 3.6537C2.47777 3.6537 2.21032 3.30267 2.21032 2.86966C2.21032 2.43664 2.47777 2.08561 2.80768 2.08561C3.1376 2.08561 3.40505 2.43664 3.40505 2.86966Z" fill="#667085"/>
<path d="M5.19672 2.86966C5.19672 3.30267 4.92927 3.6537 4.59935 3.6537C4.26943 3.6537 4.00198 3.30267 4.00198 2.86966C4.00198 2.43664 4.26943 2.08561 4.59935 2.08561C4.92927 2.08561 5.19672 2.43664 5.19672 2.86966Z" fill="#667085"/>
<path d="M6.99037 2.86966C6.99037 3.30267 6.72292 3.6537 6.393 3.6537C6.06309 3.6537 5.79564 3.30267 5.79564 2.86966C5.79564 2.43664 6.06309 2.08561 6.393 2.08561C6.72292 2.08561 6.99037 2.43664 6.99037 2.86966Z" fill="#667085"/>
<path fill-rule="evenodd" clip-rule="evenodd" d="M11.4286 24V0H12.5714V24H11.4286Z" fill="#667085"/>
<path d="M22.9841 0H15.873C15.2635 0 14.8571 0.451282 14.8571 1.12821V13.5385C14.8571 14.2154 15.2635 14.6667 15.873 14.6667H22.9841C23.5936 14.6667 23.9999 14.2154 23.9999 13.5385V1.12821C23.9999 0.451282 23.5936 0 22.9841 0Z" fill="#667085"/>
<path d="M14.9028 22.6667V18.6667C14.9028 17.8667 15.3071 17.3333 15.9136 17.3333H22.9892C23.5957 17.3333 24 17.8667 24 18.6667V22.6667C24 23.4667 23.5957 24 22.9892 24H15.9136C15.3071 24 14.9028 23.4667 14.9028 22.6667Z" fill="#667085"/>
<path d="M18.0796 20.1504C18.0796 20.5834 17.8122 20.9345 17.4823 20.9345C17.1524 20.9345 16.8849 20.5834 16.8849 20.1504C16.8849 19.7174 17.1524 19.3664 17.4823 19.3664C17.8122 19.3664 18.0796 19.7174 18.0796 20.1504Z" fill="#667085"/>
<path d="M19.8713 20.1504C19.8713 20.5834 19.6039 20.9345 19.2739 20.9345C18.944 20.9345 18.6766 20.5834 18.6766 20.1504C18.6766 19.7174 18.944 19.3664 19.2739 19.3664C19.6039 19.3664 19.8713 19.7174 19.8713 20.1504Z" fill="#667085"/>
<path d="M21.665 20.1504C21.665 20.5834 21.3975 20.9345 21.0676 20.9345C20.7377 20.9345 20.4702 20.5834 20.4702 20.1504C20.4702 19.7174 20.7377 19.3664 21.0676 19.3664C21.3975 19.3664 21.665 19.7174 21.665 20.1504Z" fill="#667085"/>
</svg>
